<?xml version="1.0" encoding="UTF-8" standalone="no"?>
<!-- Created with Inkscape (http://www.inkscape.org/) -->

<svg
   version="1.1"
   id="svg297"
   width="2458.6667"
   height="1858.6667"
   viewBox="0 0 2458.6667 1858.6667"
   xmlns="http://www.w3.org/2000/svg"
   xmlns:svg="http://www.w3.org/2000/svg">
  <defs
     id="defs301" />
  <g
     id="g303"
     transform="translate(-104.58786,-530.83635)">
    <path
       style="fill:#fefefe;stroke-width:1.33333"
       d="m 149.41978,2386.708 c 4.32147,-5.798 -1.54235,-11.9102 -2.97816,-17.5153 1.91638,-6.3002 -2.83813,-10.8126 -3.21845,-16.7998 0.2703,-7.8943 -8.39185,-8.7772 -14.31807,-8.7893 -6.54124,0.3013 -12.28912,-3.2729 -16.03383,-8.4431 -5.41034,-4.4244 -9.49306,-11.1812 -8.15094,-18.4195 1.75472,-9.9329 3.81358,-19.9619 8.29614,-29.0869 0.68223,-5.1652 4.47678,-10.7001 1.52769,-15.7442 -6.78311,-2.1368 -3.20411,-8.6547 -1.67463,-13.4481 -0.26993,-6.9784 0.98253,-13.9202 3.04481,-20.559 2.01513,-7.937 4.53482,-15.7895 5.19738,-23.9973 0.31491,-6.5318 6.17669,-11.7842 4.70221,-18.4223 -3.27656,-6.2954 1.89935,-11.6703 1.445,-17.9099 -0.96291,-6.9243 -0.60653,-13.6742 -1.4581,-20.569 0.59329,-6.5071 4.05295,-12.5833 2.72451,-19.3191 -1.81246,-6.5281 2.8168,-13.3082 -0.43895,-19.6363 -3.93024,-3.3145 9.11291,-4.6487 3.37437,-8.5549 -7.56085,-3.8716 -0.23477,-12.4337 5.51111,-12.3565 4.11142,-5.7874 -5.33948,-8.7392 -6.4695,-13.7899 -2.20766,-6.0134 -0.43837,-12.6419 2.66541,-17.9707 2.58655,-7.3554 2.64262,-15.256 2.98247,-22.9113 2.32914,-5.4601 8.00653,3.6724 10.65931,-2.3644 2.77482,-5.2163 1.04927,-11.3675 2.03641,-16.9864 1.69946,-26.2948 5.93589,-52.39 6.64156,-78.7549 -0.37441,-5.4657 -13.03052,-3.0978 -9.50163,-9.0019 6.77188,-2.5453 6.60985,-10.8627 7.97449,-16.7837 2.32746,-12.2533 1.60242,-24.7983 1.24615,-37.1801 -1.03929,-7.2976 -0.62634,-15.2442 3.00313,-21.8273 3.61879,-4.1842 6.74182,-9.0379 7.07525,-14.7608 0.4624,-8.1191 0.0995,-16.8284 4.75384,-23.9458 0.6493,-6.378 11.30082,-2.2434 10.72826,-9.7303 1.89766,-8.3754 2.59505,-16.9696 4.01216,-25.4319 0.91831,-6.7125 1.94721,-13.4318 3.73714,-19.9759 6.73936,3.352 7.0955,-6.2432 6.56329,-10.6303 0.22365,-6.7483 0.55384,-13.5588 1.18895,-20.2918 2.21463,-12.3645 2.37872,-24.9798 2.12971,-37.5018 0.17794,-5.2251 -3.52993,-10.053 -0.60726,-15.2479 2.71424,-7.0429 2.28473,-14.7492 3.70299,-22.0892 0.21985,-5.8646 2.9878,-13.0925 1.38176,-18.1209 -6.34767,0.2964 0.35785,-3.273 -0.8228,-6.8134 -0.074,-6.574 3.79265,-12.1117 3.33908,-18.8036 0.0652,-6.1799 6.16136,-8.8491 8.72896,-13.7569 5.03799,-9.1665 7.87807,-19.31 11.70772,-28.9934 2.55586,-6.6454 9.44985,-11.5072 8.80147,-19.2766 0.95624,-8.9611 -11.95575,-4.2913 -13.20104,-11.079 1.59294,-7.1466 2.30076,-14.621 5.34414,-21.4019 3.92298,-1.9715 7.1079,-5.9181 5.04712,-9.9096 3.83966,-3.8581 7.85736,-7.7832 6.80379,-13.526 2.26696,-5.7925 7.98911,-11.095 5.90678,-17.8457 -0.17848,-5.1669 9.36323,-1.0906 6.47562,-7.5458 -2.10491,-5.4924 -12.06272,-11.4094 -3.58857,-16.5001 5.12977,-2.5188 7.59752,-7.527 10.85617,-11.8665 3.19071,-4.1116 7.19811,-9.1815 5.63675,-14.6935 -2.89048,-2.9383 -5.17814,-6.9578 -0.32854,-9.4482 3.99288,-4.0561 7.92521,-8.9479 7.56308,-15.0036 0.77662,-5.1893 -1.88353,-8.8516 -5.67202,-11.6562 6.63263,-0.1064 8.44486,-7.545 13.08554,-11.0182 6.27923,-4.7478 -0.152,-12.8737 0.93042,-18.955 2.12752,-6.5762 6.40864,-12.1716 9.13458,-18.4764 3.64965,-5.9346 5.98391,-12.7646 5.99336,-19.7381 2.19659,-7.0361 -3.93451,-12.777 -4.70846,-19.3391 -1.80881,-2.8476 -4.46695,-6.6725 -0.15443,-8.2701 -0.0873,-3.8281 -10.99708,-7.267 -4.05381,-10.1345 7.97421,-1.3006 5.47562,-10.4851 0.57798,-13.7451 -1.59375,-6.1956 9.14892,-1.8673 5.82106,-7.8927 -6.21356,-5.0871 -6.23397,-12.8394 -2.11036,-19.3238 2.40135,-5.3358 2.1362,-11.2795 4.83249,-16.541 1.89857,-5.3028 3.63596,-10.7637 3.88895,-16.4323 -3.98738,-2.4899 -6.46012,-8.7475 -0.0983,-9.8641 3.51833,-2.5354 1.80304,-8.035 -0.93023,-8.0811 3.03618,-6.4728 5.03996,-13.6105 4.60002,-20.8132 4.09095,-5.1419 3.65614,-11.7448 3.18019,-17.451 3.09731,-5.6627 8.52481,-10.9316 7.90664,-17.7129 -2.58568,-4.7324 -2.10789,-9.9131 3.03301,-12.2528 4.22153,-4.7314 4.40137,-11.4475 4.38899,-17.4473 7.6926,-2.7247 1.41528,-12.1502 5.23644,-17.0311 3.60736,-2.9503 14.18936,-3.1506 10.97333,-9.9906 -3.99192,-1.5106 -3.28116,-5.0971 0.73578,-5.6582 6.05606,-0.7307 12.67733,-10.3676 4.16462,-12.6286 -6.09733,-0.7591 -4.97763,-6.6867 -1.18448,-9.6375 3.71825,-5.5985 1.9499,-12.8653 6.33358,-17.8525 1.38412,-4.2766 -5.92061,-7.0467 0.0345,-9.7519 4.13842,-2.2924 3.38308,-6.3126 0.55827,-8.7767 0.18892,-7.1179 9.35514,-9.0348 12.01069,-14.8038 0.40657,-4.11026 -3.06197,-10.23121 3.02284,-11.231 1.03771,-4.4608 -3.33396,-9.83818 1.66893,-13.40133 2.77032,-5.58179 1.51515,-15.0443 9.47536,-16.3217 5.70743,-2.02704 2.82861,-9.23426 8.23816,-11.40915 3.94069,-3.581 -4.0218,-9.89285 3.28332,-11.74867 5.01207,-2.25559 5.18417,-8.45746 6.41748,-13.11685 1.81543,-13.87627 6.51022,-27.13537 10.16174,-40.59317 0.81923,-7.21954 11.2938,-9.32464 10.51561,-17.35031 -0.71023,-3.92777 1.19413,-7.82216 1.76191,-11.71746 1.03211,-5.51268 3.02082,-10.73163 4.54838,-16.09586 1.84562,-9.38288 3.69702,-20.18914 12.3407,-25.85218 6.38634,-4.05565 13.24899,-7.56324 19.43913,-12.03683 5.68825,-5.41806 13.71121,-7.04061 20.8969,-9.59812 6.99392,-3.579 2.20672,-13.13817 7.18699,-17.48224 5.45328,-4.31 0.83126,-10.11913 2.80172,-15.06809 2.39646,-7.55594 4.59991,-16.02943 11.37744,-20.91719 5.79228,-4.54307 12.28565,-8.25008 17.44177,-13.55312 -0.15138,-4.49644 8.99866,-5.63471 13.348,-7.10572 9.07528,-0.89683 18.52212,0.20277 27.14754,-3.41804 6.26708,-1.97867 10.26281,-8.05245 10.52959,-14.46392 0.7731,-6.61518 1.73723,-13.24183 4.18314,-19.47436 1.68674,-5.67359 3.19233,-11.5115 3.07752,-17.47602 7.33779,-1.83821 10.43576,-10.42766 11.18872,-17.05511 3.24761,-4.13098 9.82715,-6.93022 7.66718,-13.39628 -0.51361,-6.3276 3.84662,-11.84654 9.76984,-13.58051 9.85796,-5.10373 20.23017,-9.66568 31.3666,-10.89405 14.5289,-3.3099 29.8673,-3.30393 43.84216,-8.82596 5.37161,-2.61253 10.12942,-6.74535 16.15903,-7.78343 9.64174,-7.61548 22.06199,-9.53322 33.8068,-11.59967 14.73684,-2.59765 30.33642,0.59042 44.52659,-5.14803 9.06913,-6.71102 14.56507,-17.01213 23.39686,-24.00388 5.86405,-4.21584 10.36714,-12.06682 18.30849,-11.67317 9.91666,-1.00105 19.81126,-2.53765 29.4448,-5.06205 13.61738,-0.87262 27.5049,1.14635 40.87788,-2.34666 20.2653,-2.71926 41.13412,-4.13216 61.2441,0.45601 7.38357,3.25731 13.93475,8.67354 22.00003,10.19448 4.21765,-0.0783 0.811,-7.98842 5.43993,-4.03976 5.77392,2.85574 11.45337,-0.74078 17.17545,-1.48986 16.87338,-2.80796 34.17168,-2.85586 51.14258,-0.99103 8.023,1.30246 15.3105,5.19122 21.967,9.6552 5.3449,0.92267 9.81,-8.31714 14.7102,-1.9687 2.5121,2.06307 4.8483,-0.41903 2.3373,-2.685 5.9796,0.94896 12.1615,2.00481 17.9901,-0.31473 9.4901,-2.33862 19.5046,-4.76916 29.2339,-2.34614 9.2351,-1.43035 18.8582,0.89571 26.4091,6.39937 10.8981,6.87008 19.0973,17.1204 26.2226,27.6782 5.3703,4.39123 11.6429,-0.75402 16.6543,-3.12552 12.77,-5.47464 26.9719,-2.1155 40.3003,-4.56159 7.3183,-1.15799 14.1069,-4.84804 21.6612,-4.73276 14.7038,-1.10064 29.4586,-0.4329 44.1675,0.19182 6.3125,4.19231 14.1282,-0.26186 20.7146,2.33038 4.3283,3.17906 8.9639,8.89426 14.0267,7.62481 2.3277,6.83965 10.8866,9.15118 12.7624,16.26019 4.7666,4.62369 12.5319,7.19068 18.9011,6.41618 4.8747,-1.74274 7.5608,3.99696 12.1654,1.70224 4.7862,-0.79486 11.294,0.47122 12.4458,5.99867 2.923,6.25076 -3.471,12.36399 -1.0473,18.5799 4.2725,5.38856 12.4935,4.66723 18.4602,7.25042 6.9223,0.85698 -2.0533,9.93327 4.9821,12.01261 4.4248,4.53378 5.4443,11.68287 10.9391,15.28892 3.7678,5.89614 11.1684,7.16702 16.582,10.96987 2.8109,5.61166 -2.7729,15.9512 6.7645,17.08197 11.2421,3.25873 23.7677,1.04549 34.2645,7.03715 6.5953,2.80788 12.9312,6.23248 18.864,10.25744 5.2116,1.689 12.3743,2.60209 14.1187,8.75837 0.2016,9.51258 5.589,17.82736 8.6984,26.58654 2.7209,6.0164 6.1138,15.80726 14.6304,13.44034 6.1179,-2.50497 12.5778,-2.59429 18.9151,-3.84674 7.7945,-2.23061 15.97,-6.27302 24.1777,-3.49398 6.1921,0.52178 12.5552,-1.67843 18.54,0.91422 6.3177,1.55497 14.4676,2.3049 17.7057,8.84479 2.7612,6.17905 0.3326,13.96673 5.0363,19.39441 6.6272,3.20212 14.2213,1.20675 21.0797,0.0745 5.8585,-2.45279 12.6484,-5.13751 18.8913,-2.38393 5.5032,0.0891 10.998,-2.32895 16.1606,0.66718 7.969,1.45346 16.7014,1.46177 23.6482,6.09787 5.0944,4.96226 3.1354,12.6417 4.3353,18.96746 0.8566,8.20071 1.2082,16.68679 4.2463,24.43285 2.9601,4.92876 9.2766,2.26413 13.5483,0.98493 6.5725,-2.01956 13.5817,-0.95479 20.3552,-1.33498 10.2128,-0.0932 20.5165,-0.0489 30.6466,-1.0758 2.9646,-1.4447 7.0899,-2.5941 6.5447,2.15496 5.1683,3.81182 12.2811,-3.50999 17.4823,1.3757 6.3125,5.40725 7.4161,14.43516 7.4335,22.28599 0.4531,6.93161 3.4651,13.3379 5.0503,20.02757 3.4978,7.3991 12.3805,3.46211 18.3138,2.28827 18.4287,-3.0787 37.0827,-0.0641 55.3491,2.56385 7.7357,0.44782 17.0694,1.28405 21.8447,8.24281 4.1934,6.66675 5.8324,14.44741 7.7813,21.94905 2.3892,7.30565 8.6034,12.37285 11.9203,19.21184 2.3309,3.61035 3.5462,7.85864 6.0463,11.33049 4.3102,4.71203 11.2393,3.54927 16.5611,1.61029 10.7303,-2.04388 21.6987,-2.47538 32.5717,-3.29 23.8792,-1.0902 48.307,-1.31429 71.5212,5.14647 8.2307,2.42637 16.9078,6.86562 20.0992,15.39118 2.5087,4.77186 1.0064,10.15752 1.7832,15.1605 1.3796,7.555 9.3267,9.59322 15.7905,7.75614 20.2441,-1.38803 40.6576,0.45179 60.5359,4.3497 6.6581,1.68711 14.1801,2.87384 19.1863,7.97207 4.487,4.63503 6.1418,11.09338 9.0007,16.63065 5.1993,5.10787 12.5784,1.13877 18.8224,1.88267 23.8495,-0.2673 48.23,1.1337 70.8898,9.1308 7.2115,3.5678 14.0348,9.8134 15.1357,18.1738 0.1918,7.4704 5.9434,13.512 13.7077,10.9415 12.8675,-1.7553 25.9923,-0.6075 38.7772,1.3812 9.8882,1.7876 19.7861,4.1853 29.0221,8.1794 4.6959,2.1709 8.2404,8.0778 5.1955,12.9297 -2.4037,7.9912 8.1695,9.0316 13.6462,9.2738 17.2414,3.1907 35.445,0.9168 51.9739,7.7682 8.6498,3.7254 17.7994,6.0733 26.2949,10.1315 4.2673,1.5709 4.7144,5.4595 0.2838,7.1029 -6.2262,4.5222 -2.0641,11.0518 3.3197,13.6448 4.4022,4.0754 9.0354,8.6795 15.3535,9.2289 6.8554,1.2256 13.6507,3.0926 19.7214,6.5739 8.0472,3.396 17.8149,4.6601 23.5945,11.8387 1.4978,5.6445 1.9216,12.8051 9.4219,13.1831 6.075,3.3518 11.4746,9.9955 18.9906,6.763 8.2606,-0.6983 12.6019,7.6802 11.0353,14.9199 -0.3474,22.4802 -0.041,44.9838 -0.2084,67.474 -0.076,22.0356 -0.2693,44.072 -0.7947,66.102 -2.0017,8.5545 -8.896,14.5217 -14.0064,21.2542 -5.268,4.2009 -14.4898,1.8182 -17.8128,8.7153 -4.0041,8.6914 -7.2826,17.7027 -11.6673,26.222 -4.062,8.5601 -7.454,17.8552 -14.0555,24.8311 -4.3232,5.0505 -11.8217,2.8626 -16.4041,6.6023 -6.7022,5.9538 -9.8409,14.6308 -12.0986,23.0542 -3.2795,10.5183 -8.5983,20.2776 -14.311,29.6487 -1.0143,6.8991 -9.1389,4.6168 -13.9107,3.838 -5.1291,-0.8029 -8.212,4.6728 -10.0329,8.6592 -3.3926,7.5705 -8.0541,14.4855 -12.1204,21.7047 -3.8743,6.0727 -8.0206,12.3167 -13.7782,16.7225 -6.3493,2.7829 -13.475,-2.3343 -19.6797,1.1471 -8.0139,1.5345 -12.158,9.3715 -15.4119,16.051 -4.4675,7.7706 -7.638,16.235 -11.828,24.1098 -3.9846,5.7327 -9.6718,12.3359 -17.441,11.2986 -6.7778,-1.3792 -13.9241,1.1921 -16.6318,7.9138 -5.0815,8.9995 -7.6427,19.1214 -11.5887,28.6244 -2.0189,5.3155 -4.4373,10.5748 -8.0651,15.0016 -0.4101,7.111 -10.0934,10.6234 -15.2737,5.9999 -8.6981,-3.049 -19.6499,2.0319 -21.7673,11.2837 -3.1672,6.5545 -6.2469,13.2253 -10.6107,19.0936 -1.9793,7.1108 -9.6817,13.392 -17.2579,10.9962 -7.0899,-1.7636 -14.2321,3.3359 -15.0121,10.4611 -3.757,7.6028 -8.9108,14.458 -12.2205,22.2881 -6.0174,10.2013 -18.2715,15.7177 -29.9196,14.3989 -6.3462,-0.6669 -14.1796,0.9395 -16.2553,7.8622 -3.0222,6.9167 -4.5603,14.9634 -10.6895,20.0075 -5.6173,5.0588 -8.3067,12.5512 -14.5338,17.003 -10.0284,8.3091 -23.5794,9.9215 -36.1424,9.0827 -5.948,-0.8413 -12.8358,0.4715 -15.3884,6.6494 -2.9505,6.1337 -5.3077,12.8047 -10.701,17.337 -7.2236,7.129 -17.0261,10.3797 -26.5323,13.135 -5.9271,2.0188 -12.3484,2.7486 -18.5042,1.3992 -6.8953,-0.8704 -13.5635,3.5062 -15.6739,10.0786 -4.5432,10.324 -10.9566,19.9885 -19.6992,27.2235 -5.1787,4.57 -11.9409,6.3607 -18.5641,7.3601 -7.4656,2.3533 -8.3671,10.5225 -10.795,16.7147 -3.912,9.567 -8.3358,19.7803 -16.8226,26.1455 -4.7853,2.4102 -11.189,0.7543 -15.1287,4.8848 -2.9094,6.3341 1.6441,13.3992 1.7,20.0196 4.2483,31.0493 14.0375,61.0361 18.6524,92.0287 5.3554,23.7048 13.3078,46.8439 16.5146,71.0102 7.2081,40.1135 11.052,80.8563 20.6794,120.5144 3.577,12.9277 6.9989,25.9022 9.893,38.9976 2.5685,8.5803 4.5009,17.317 6.1471,26.1112 2.163,7.5837 3.0564,15.4178 3.1069,23.2889 0.4663,16.2311 -1.3631,32.4002 -1.9782,48.6013 1.8185,6.9334 -3.2268,13.4639 -9.9309,14.7792 -5.949,3.1581 -12.2009,6.4642 -19.1197,6.3979 -8.9661,1.5296 -18.0271,2.4857 -27.1284,2.3732 -9.2846,0.7568 -18.5958,2.5447 -27.9186,1.1107 -4.033,-0.3869 -8.0697,-0.8277 -12.1258,-0.8483 -5.6381,4.0597 -12.5552,0.482 -18.3407,1.7646 -7.2336,1.8089 -13.7354,-5.239 -20.6624,-0.9987 -8.2453,2.0832 -15.8609,-5.423 -16.3708,-13.3467 -1.5321,-17.6128 1.7129,-35.2702 0.043,-52.8789 2.6021,-6.8036 3.7251,-14.6158 0.5577,-21.4333 -3.1157,-11.1541 -8.5221,-22.1068 -7.6931,-33.9734 -2.8093,-8.4937 -6.8322,-16.6704 -7.8193,-25.6719 -1.7243,-10.4024 -3.7508,-20.8153 -7.6052,-30.6636 -2.0213,-5.6411 -1.0893,-11.7749 -3.0907,-17.3481 -1.6132,-7.9274 -0.4478,-16.2887 -3.4515,-23.9618 -2.1512,-6.2831 -3.3757,-12.9773 -2.02,-19.562 1.0016,-6.2724 -2.635,-11.7819 -3.1813,-17.8582 -1.1405,-9.4419 -0.3139,-19.478 -4.8547,-28.1695 -1.804,-6.2215 -0.9044,-13.7934 -6.0256,-18.6066 -0.7056,-7.9867 -1.5391,-16.1052 -4.7111,-23.5532 -2.7495,-6.5623 -1.5818,-14.144 -4.7359,-20.4026 -3.6714,-9.2358 -3.6177,-19.3625 -5.6883,-28.9879 -2.0457,-12.4487 -3.2616,-25.0514 -5.2899,-37.4794 -2.9467,-7.8206 -6.415,-15.5684 -7.2443,-23.9812 -2.1263,-13.0481 -2.3335,-26.4127 -5.7701,-39.2344 -0.9246,-7.6009 -0.4676,-15.5433 -3.5759,-22.7123 -1.6084,-7.5065 -1.9935,-15.2255 -3.5651,-22.7333 0.147,-6.3458 -1.1953,-12.4454 -3.5724,-18.2805 -1.9475,-7.8122 -3.1073,-15.8374 -6.0419,-23.3739 -2.1653,-5.9655 1.9067,-12.4162 -1.8076,-17.989 -3.5064,-5.1205 -4.1376,-11.1856 -5.3583,-17.0789 -1.1416,-5.3014 -1.2528,-10.8055 -1.8469,-16.1235 -5.3526,-14.0022 -7.0114,-29.0168 -10.4564,-43.5287 -2.5978,-13.5681 -4.8491,-27.2251 -8.4756,-40.5667 -1.0924,-6.1314 -1.7562,-12.3769 -3.8129,-18.2845 -2.5234,-12.2304 -1.8059,-25.1114 -6.4478,-36.884 -4.8514,-18.8086 -8.5768,-37.9004 -13.9651,-56.5715 0.6456,-8.0455 -6.9576,-13.9317 -6.5394,-21.9793 -1.2472,-6.6878 -5.5188,-12.4718 -6.1015,-19.3304 -6.4322,-21.4867 -8.0459,-44.1182 -15.0289,-65.4525 -2.2236,-6.9708 -0.9553,-14.4778 -3.3953,-21.4177 -4.4222,-15.8929 -8.1931,-32.4105 -17.453,-46.3529 -5.6351,-10.8411 -8.7677,-22.7477 -12.7188,-34.2493 -2.061,-6.0653 -4.4965,-11.9639 -6.3471,-18.0973 -2.8252,-6.899 -4.3016,-14.1868 -6.1456,-21.3725 -0.9181,-5.8942 -3.4156,-11.2844 -5.8541,-16.6584 -3.0965,-7.6292 -5.7005,-15.4515 -8.9467,-23.0209 -0.7369,-9.4038 -7.6767,-16.679 -9.8883,-25.6592 -2.1877,-6.512 -6.4074,-12.247 -7.2729,-19.1793 -2.4144,-10.2909 -6.1764,-20.2495 -7.4552,-30.8009 -3.155,-21.6266 -10.6656,-42.7537 -22.6383,-61.0898 -1.6637,-6.7502 -5.8512,-12.1908 -11.5481,-15.3827 -2.9249,-6.4244 2.6679,-12.8536 0.8886,-19.4157 -1.608,-9.305 -4.9855,-18.2065 -8.0919,-27.0916 -5.3167,-13.9466 -11.1463,-27.714 -15.6905,-41.9395 -2.7244,-7.26428 -8.913,-12.07606 -14.2288,-17.34284 -5.106,-5.32755 -9.9728,-11.42544 -17.0308,-14.17356 -6.0599,-3.41299 -8.6832,-10.13914 -11.0503,-16.2686 -4.6468,-10.75448 -8.295,-21.92524 -13.3436,-32.50859 -4.9662,-4.04545 -12.1521,-6.7344 -13.8064,-13.60173 -3.304,-5.94325 -6.5469,-12.15084 -11.7283,-16.70757 1.7661,4.57903 -4.1328,2.32645 -2.7495,-1.26104 -1.0986,-6.32837 -5.5439,-12.40419 -11.0829,-15.24782 -4.2487,1.43522 -9.4169,0.53169 -8.4245,-5.16102 -0.3851,-6.18499 -6e-4,-12.84859 -3.6345,-18.21126 -2.8465,-5.54055 -4.1227,-11.68342 -5.0796,-17.77148 -1.621,-7.43258 -9.6657,-7.25055 -15.2632,-7.32596 -6.4229,-3.34656 -10.6066,-9.6097 -15.1221,-15.07194 -7.8384,-10.23343 -13.706,-21.84054 -18.0312,-33.94938 -1.6038,-6.4364 -6.683,-12.92261 -14.0976,-11.18919 -5.665,0.83682 -11.1919,2.89259 -16.8012,0.86672 -5.8524,-0.72936 -12.6589,0.20296 -17.2765,-4.25011 -5.0317,-3.24483 -11.7148,-4.93461 -14.3545,-10.87985 -4.8539,-5.89251 -10.5282,-11.59942 -12.345,-19.28492 -1.7095,-4.9946 -4.7577,-11.70723 -11.0694,-11.18418 -5.7938,1.05919 -11.6232,2.20355 -17.536,1.79952 -6.1408,0.42419 -13.128,0.19817 -17.7336,-4.48924 -5.986,-4.37883 -13.6783,-4.01552 -20.6252,-5.21869 -6.1109,-1.57411 -11.2221,-6.245 -13.3559,-12.16148 -5.4526,-5.99076 -12.5238,1.98534 -18.4606,3.10331 -6.3307,2.31601 -12.8995,0.62805 -19.319,-0.004 -27.9661,-2.0587 -55.9473,1.69694 -83.9313,0.51069 -7.2254,-0.38979 -15.1189,1.98538 -21.6393,-2.19096 -5.7613,-4.22805 -12.6549,-1.84149 -19.1256,-1.81924 -17.2933,0.7484 -35.3132,-0.97004 -51.7904,5.39646 -7.3655,3.56819 -15.2202,6.29216 -23.46,6.64535 -12.26268,1.30296 -24.61146,0.77277 -36.9149,1.17483 -5.29086,-3.36019 -11.46648,-2.79941 -17.08647,-1.18173 -7.68143,0.33584 -15.31634,-0.95707 -22.80274,-2.54629 -7.40772,-4.41949 -15.27407,1.24941 -22.74602,2.34109 -9.97092,1.84764 -20.16798,0.98031 -30.21614,2.0047 -7.1009,4.09386 2.48846,13.96932 -4.51399,18.14048 -5.67684,3.24645 -11.85332,5.54738 -17.66309,8.55732 -8.66944,3.38477 -17.23136,7.34737 -26.55776,8.57357 -10.30033,1.63234 -20.76628,2.03097 -31.16937,2.26356 -6.87555,-0.22598 -14.14452,-2.38672 -20.6903,0.68251 -19.42749,7.10002 -40.41776,6.14718 -60.7524,5.99011 -6.17179,-2.2262 -16.33448,4.52318 -11.94813,11.16637 2.60138,3.57949 0.48784,10.90444 -4.8399,8.30342 -4.47308,4.50282 -10.84945,5.6481 -16.91031,5.61529 -7.39367,0.78611 -14.8173,1.5898 -22.0477,3.33434 -9.00696,0.87493 -18.06219,0.3473 -27.0918,0.37588 -0.23599,7.29849 0.81109,14.89214 -1.86696,21.88015 -5.45639,2.58851 -9.9652,10.37599 -5.38052,15.66975 3.00779,1.80736 4.32319,8.16316 -0.43781,4.59678 -7.46862,0.137 -9.36413,9.04708 -14.51074,12.92108 -5.76051,3.34827 -12.79748,2.27258 -19.04851,4.16568 -5.82488,1.19217 -11.62048,2.59878 -17.23194,4.58131 -4.72291,6.205 -5.83895,14.17571 -8.99934,21.13892 -5.28712,18.625 -11.96632,37.44223 -11.2269,57.06999 3.12091,7.35496 -5.3976,10.54242 -7.33971,16.47826 0.10178,4.61647 -5.33043,6.34777 -8.35547,8.95429 -5.20735,3.14821 -6.77544,9.30324 -9.324,14.41166 -3.86134,9.86077 -7.86795,19.65524 -12.1151,29.35566 -5.32705,12.4965 -9.15907,25.5389 -13.58132,38.3584 -10.01259,27.2452 -21.91025,53.829 -29.93067,81.7779 -6.68525,22.601 -10.71971,45.8919 -17.63117,68.4358 -11.47269,40.4996 -24.34994,80.6897 -32.68664,121.9972 -3.09482,15.5904 -4.75677,31.5226 -9.9428,46.6307 -2.24245,7.3532 -3.47328,14.9965 -6.10528,22.2566 -4.29099,12.756 -6.02787,26.1607 -9.74853,39.0781 -4.37638,17.3179 -10.72148,34.0772 -14.45343,51.5663 -2.68891,12.0565 -5.82769,24.0087 -8.71701,36.0116 -2.48138,11.6642 -2.2385,23.6927 -4.15849,35.4124 -2.66065,11.3293 -7.16945,22.1868 -8.80682,33.7624 -6.64073,32.9883 -13.74624,65.8819 -20.8251,98.7765 -2.61324,14.0051 -2.75874,28.3052 -5.08423,42.3514 -2.40997,17.5055 -3.94487,35.1098 -6.19294,52.6349 -1.49752,12.4939 -1.97012,25.0869 -4.08139,37.5052 -6.16218,46.2039 -10.42035,92.6323 -15.43496,138.9677 -1.90813,18.6802 -2.85975,37.4422 -4.01786,56.1719 -2.50511,21.5605 -8.04686,42.7754 -8.27673,64.5805 -0.9481,19.4588 -2.39554,38.8897 -4.14412,58.2889 -2.13376,35.6672 -3.05563,71.3978 -5.29038,107.0585 -0.46773,13.6899 0.0642,27.4186 -0.33434,41.0907 -1.53299,6.7532 -4.99006,13.3275 -3.86074,20.4412 0.0663,9.938 -0.4551,20.1499 -4.22706,29.4711 -4.52055,1.9058 -2.57063,13.4311 -7.29572,11.7529 0.0732,-6.8276 6.47953,-12.4403 4.63965,-19.4628 -5.81542,-5.2833 -7.69257,5.7095 -7.73041,9.8451 1.00818,5.1866 -5.15653,14.0354 -8.55604,6.1576 -0.0656,-6.0028 3.14914,-13.7834 -4.66448,-16.5059 -1.17406,-3.0815 3.9405,-11.0559 -3.24871,-9.9726 -5.14979,4.2045 -10.38484,8.5019 -16.07652,12.0449 -1.692,2.9375 2.02625,10.2811 0.21772,10.6938 -1.1056,-4.435 -8.81467,-3.9177 -4.79446,1.2536 2.37623,7.7692 -6.09296,14.0818 -13.15801,11.0193 -7.51241,-1.3507 -10.01866,-9.5803 -17.01736,-11.4 -2.49072,-2.0185 -9.67964,-8.2739 -8.0677,-0.9857 1.56335,2.4461 2.74934,7.4858 -1.93584,5.2148 -6.14918,2.5154 -3.3421,-5.0601 -3.79194,-7.7645 -5.05954,-4.3238 -11.41426,2.1414 -16.79367,3.2596 -5.75084,2.086 -0.38777,7.6617 -2.46308,11.8226 -1.24501,5.6061 -2.51262,11.2575 -2.05129,17.0406 -0.1616,8.7556 -0.30005,17.5815 -2.01074,26.1997 -0.4623,1.3517 -5.7175,3.6129 -4.09929,0.3378 z M 1926.1257,1690.4471 c 8.7016,-4.0531 18.4665,-5.2535 27.9832,-4.8931 5.3687,-2.2562 11.2823,3.5914 16.2826,-0.074 4.0528,-5.7196 1.9714,-13.5778 5.5063,-19.6011 5.0308,-6.6523 0.3258,-14.9403 1.4687,-22.3344 3.6702,-5.9891 12.0252,-1.2063 17.6189,-3.5512 11.0505,-1.8797 22.207,-3.2112 33.4345,-2.9194 5.764,-0.048 11.5287,-0.01 17.2924,-0.099 6.5641,-4.673 4.8238,-13.5525 6.9797,-20.321 4.2343,-6.9413 5.0708,-15.1947 5.6794,-23.11 1.489,-5.7405 8.4273,-4.3378 12.9121,-4.4307 11.2704,-1.2371 23.0681,-0.3249 33.8992,-4.0349 5.923,-4.2965 3.7636,-12.3736 5.5368,-18.4409 2.297,-5.7685 7.4108,-11.1694 5.9185,-17.8236 -0.361,-6.9031 6.4556,-13.308 13.2542,-10.4632 6.9792,0.4838 13.793,-1.5025 20.7165,-1.9532 7.3432,-4.1622 5.5022,-15.2736 13.1134,-19.1736 5.2341,-4.3289 -1.2156,-12.7772 4.6417,-16.7219 6.9715,-3.2508 14.8814,-0.7011 22.2422,-1.933 5.1523,-0.9287 12.646,-0.3099 14.792,-6.2287 2.7114,-5.9614 2.9768,-12.7975 6.3871,-18.4849 2.8615,-6.2521 6.4123,-12.6697 5.7391,-19.7676 1.6285,-5.8732 9.0237,-6.6748 14.1398,-5.91 7.6883,-0.1128 16.0582,0.9023 23.0214,-3.009 6.3876,-5.3328 6.9831,-14.6103 12.9341,-20.3362 3.9583,-6.2944 -0.1416,-15.64 6.5088,-20.5893 4.7879,-3.46 11.0885,-1.9513 16.6178,-2.3492 6.0478,-0.032 12.7183,0.1823 17.9819,-3.1863 5.1766,-5.3075 5.2887,-13.3069 8.9593,-19.4839 1.3231,-6.5983 7.2827,-12.8701 6.3878,-19.3777 -4.3501,-4.6828 -11.7942,-0.7007 -17.0566,-3.8456 -5.7533,-2.6227 -13.0951,-3.6017 -17.2642,2.2046 -9.8745,7.6783 -22.5371,11.471 -35.0068,10.8799 -11.3999,-0.3159 -23.1884,-1.2046 -34.0625,3.0172 -14.9612,5.6245 -31.7962,5.6209 -46.9272,0.6154 -7.8754,-0.3308 -15.0403,4.1625 -22.9384,3.8042 -5.6808,0.5415 -12.8392,-0.7093 -16.8759,4.3058 -2.3223,4.0695 -1.7632,9.1789 -4.0757,13.3383 -3.4243,9.1282 -13.3052,13.1038 -22.2469,14.4737 -8.1628,1.6541 -16.5943,1.8812 -24.6299,4.1167 -6.0718,4.163 -6.2586,12.8778 -12.3863,17.0503 -9.0965,8.6174 -22.3362,9.181 -34.103,10.6554 -11.997,1.1757 -24.1406,0.6002 -36.0958,1.9614 -6.8147,2.3666 -12.5522,7.8518 -20.1047,7.9096 -24.3925,3.9961 -49.2203,2.1566 -73.7721,4.2641 -14.9211,0.6922 -30.3548,1.1075 -44.6118,-4.0657 -5.0801,-0.3178 -11.625,-11.2311 -15.1932,-4.1111 0.724,6.3474 4.6285,11.7447 6.084,17.9204 9.5575,28.0587 14.3653,57.5073 24.4553,85.4015 7.7487,28.5709 10.0917,58.2705 17.6132,86.8979 3.8502,16.4455 7.6352,32.9516 9.6604,49.7402 1.5641,7.5667 10.9876,8.4591 16.918,5.7371 1.577,-0.499 3.1247,-1.0839 4.6707,-1.67 z m -234.1951,-275.7225 c -2.4182,1.4361 1.9405,2.3711 0,0 z m 240.454,-97.0993 c 11.6943,-5.3468 25.304,-0.3987 36.9753,-5.8335 6.4526,-0.4466 13.6841,3.8539 19.4702,-0.6674 7.4006,-2.9366 6.9493,-12.8812 13.0849,-16.6538 5.2316,-2.5088 4.7473,-7.971 3.0988,-12.2813 0.5302,-6.2889 5.3131,-11.682 11.1011,-13.8609 4.7721,0.961 1.2735,12.7745 8.2089,7.8056 4.8377,-4.333 -3.1043,-14.8979 5.9126,-16.2444 5.7721,-0.8262 13.0405,-5.0904 9.3203,-11.5006 1.9696,-5.8457 10.3112,-4.8917 12.7393,-10.5409 4.752,-5.6554 12.1262,-8.2799 19.2944,-8.9363 6.3634,-1.8323 9.1497,-10.2382 16.3657,-10.0046 3.7971,-4.8788 9.2663,-9.0714 11.4945,-14.8347 -1.2076,-2.6136 -2.9999,-6.2477 1.6945,-6.1536 6.7041,-1.2754 11.3857,-6.7215 17.3963,-9.2124 7.6645,-2.1657 15.6595,1.8842 23.2278,-0.8763 13.8668,-3.0969 28.2348,-2.4665 42.3238,-1.6286 9.0253,0.9073 18.228,1.0773 27.0332,3.3828 9.6412,3.0065 14.0643,12.7055 19.8911,20.039 6.3153,4.911 14.4106,1.2265 21.3469,0.1167 9.9753,-2.1633 19.627,-5.7815 28.6008,-10.6403 7.0678,-0.3785 9.312,-13.41 1.945,-14.6919 -6.5356,-2.8326 1.7345,-7.1126 3.5805,-10.4824 3.1452,-3.7391 6.8466,-7.439 11.717,-8.7197 3.961,-2.8551 9.0371,-5.5148 10.3507,-10.5905 -0.083,-6.0355 -7.6773,-5.7012 -12.0331,-6.0738 -5.1157,-0.052 -10.534,-0.6753 -14.6156,-4.0754 -6.3977,-1.6088 -10.9731,-6.614 -16.8494,-8.6922 -6.1859,0.6475 -11.7838,-2.2438 -12.6928,-8.6528 -2.0348,-5.9516 -8.3595,-8.6047 -14.2451,-7.5181 -14.0896,0.2781 -29.0974,0.4647 -41.7153,-6.7586 -8.3473,-4.2646 -17.8267,-6.4195 -27.1844,-6.3723 -4.171,-4.7983 -9.231,-11.1149 -16.3798,-8.9927 -10.6092,-0.6158 -21.4205,0.3574 -31.8259,-2.2764 -6.7639,-6.4274 -16.7374,-1.9686 -24.7045,-4.9992 -7.043,-2.2782 -14.0152,-5.4506 -21.5726,-5.2966 -7.1165,-0.9706 -10.0173,-9.7043 -17.0972,-10.5683 -3.6024,-0.06 -6.2141,8.806 -6.7691,1.8941 -0.882,-6.8531 -8.3409,-9.0007 -14.2734,-8.1302 -8.1888,0.6958 -16.3381,-0.7752 -24.4845,-1.4967 -11.8081,-1.3087 -23.5276,-4.8538 -33.2207,-11.9091 -8.1801,-5.332 -15.9274,-11.882 -20.7588,-20.4789 -4.4651,-4.8393 -12.0327,-1.2377 -15.0683,3.4395 -7.0742,5.8247 -8.5476,15.8652 -6.979,24.4286 -0.1133,7.3778 -5.7456,13.698 -4.5632,21.2463 0.2797,22.9142 0.9513,45.9141 4.1222,68.6329 1.3513,6.0089 1.6228,12.1655 0.928,18.2772 -0.058,5.0994 -0.1261,10.0226 -2.9663,14.4261 -1.3914,4.2179 -6.124,10.9364 -10.788,6.6946 -4.582,-4.3631 -3.8987,-11.5897 -8.0762,-16.2184 0.4417,-3.9871 0.5633,-13.0592 -5.8701,-9.1211 -5.5827,-1.6566 -1.7699,9.7505 -6.8145,3.9757 -3.8834,-5.5318 1.6837,-11.9162 -0.2068,-17.9456 -1.7315,-6.5687 -4.0923,-12.678 -0.7309,-19.2396 0.8237,-5.2203 -8.0065,-6.4302 -4.2565,-12.3353 3.4767,-6.5696 -4.2257,-11.8493 -1.7831,-18.8651 0.5239,-7.3802 -0.7064,-14.732 -1.041,-22.1079 -0.1333,-5.8023 -1.8495,-11.8314 -1.2807,-17.4581 0.8542,-4.7766 -2.6272,-9.7388 -4.5921,-13.6297 -5.0926,-1.2325 -6.4043,-5.6519 -5.9253,-10.332 -0.8024,-5.6309 -2.7695,-11.6553 -7.1263,-15.4954 -5.7854,-3.9529 -12.645,-6.141 -19.419,-7.6018 -10.0406,-0.1031 -19.4278,-4.2015 -27.8384,-9.3853 -4.9309,-3.1945 -10.5175,-5.3297 -15.2033,-8.86504 -5.2707,-4.66278 -7.2909,-11.79734 -12.7489,-16.33364 -4.1916,-4.72487 -7.6045,-10.60131 -14.6336,-10.9557 -4.5285,-1.89202 -8.8783,-4.2646 -13.7617,-5.29949 -5.8187,-1.34846 -11.2726,-3.74126 -16.7146,-6.1147 -5.8951,-2.18192 -12.2456,-1.76048 -18.3863,-1.87897 -6.2195,-2.39837 -11.484,-6.88564 -18.3675,-7.41251 -7.2103,-2.97236 -11.9321,-10.81095 -20.1416,-11.53142 -6.9908,-2.7696 -6.6717,6.69778 -6.513,11.13882 -0.3609,11.7169 -1.7006,23.72883 1.0712,35.24731 3.9679,14.01295 9.7872,27.45714 16.8176,40.18124 3.6736,10.2809 3.5027,21.5452 7.8415,31.6457 5.4287,14.828 14.5085,27.9662 20.2183,42.6777 6.0324,13.2744 10.8588,27.2027 12.7343,41.7168 3.8092,22.9182 9.0769,46.1441 21.0172,66.3441 2.5078,4.9512 6.5583,8.5293 10.3038,12.4301 3.4359,3.948 3.3055,9.5408 1.3704,14.0214 0.4238,9.0314 8.643,16.7958 17.6296,17.1657 6.9891,0.781 15.2015,0.013 20.5176,5.5606 -1.8535,2.6203 -6.892,6.3246 -1.2677,8.177 7.3755,6.7385 12.9595,15.5909 14.6068,25.5432 1.1603,5.2955 1.801,10.6908 3.015,15.9756 6.1747,4.2223 13.8928,2.0134 20.8048,1.9873 7.4626,-3.4691 15.7013,-4.9778 23.9035,-4.5351 6.2137,-0.1339 12.4386,-0.115 18.6389,0.3578 3.1299,3.634 8.0781,9.27 11.9508,6.5671 -0.54,5.8428 4.9785,7.5087 9.3605,8.9303 3.3117,1.4615 7.6686,2.2007 10.4605,-0.7196 z m -12.7847,-159.8885 c 3.7218,-6.3113 -0.7365,-13.3546 -0.03,-20.0238 -1.9288,-21.3465 -3.1521,-42.7509 -4.0264,-64.1646 -2.0389,-6.6889 -10.5544,-0.2077 -6.619,4.5607 0.5371,22.7449 2.8879,45.3893 4.3533,68.0815 -1.3897,4.1609 -4.0112,13.5796 2.878,13.6269 1.4532,-0.07 2.5613,-1.0089 3.444,-2.0807 z M 1456.3531,874.38664 c -2.2443,-4.33628 -3.9927,3.40799 0,0 z m -3.7388,-8.41203 c -2.3359,-4.19596 0.2896,6.50058 0.115,0.64321 -0.038,-0.2144 -0.077,-0.42881 -0.115,-0.64321 z M 429.68645,820.30794 c -3.09457,-5.53952 -2.27167,4.59028 0,0 z M 1245.6864,2041.5696 c -15.6586,-3.9362 -32.3831,-1.0147 -47.7043,-6.7118 -7.3984,-2.2827 -14.8577,-4.8106 -22.6589,-5.1576 -6.2895,-3.1149 -12.8274,-5.8665 -18.5392,-10.0074 -2.45,-5.9014 -0.089,-12.6218 -2.7777,-18.4932 -2.9246,-6.2653 3.8663,-7.6931 6.6131,-11.4483 3.0661,-5.9351 1.1501,-12.8477 2.4261,-19.1818 0.6993,-7.3207 -1.948,-14.3708 -2.7203,-21.5242 0.035,-6.6884 -3.5647,-14.3145 -10.7009,-15.6854 -5.9769,-3.9236 -1.0379,-11.9705 3.9128,-14.3199 3.0762,-3.2389 4.4567,-8.2705 9.6931,-5.8961 5.5567,-0.05 10.677,-3.1662 14.285,-7.2296 6.5548,-0.4362 13.0663,-2.3447 19.3893,0.3497 6.5145,0.414 15.7121,-3.9309 19.4428,3.8098 2.104,4.8864 6.4254,3.2388 9.6367,1.0165 5.9456,0.8534 11.9773,4.2547 17.5512,-0.081 6.0049,-2.8656 12.1529,-0.5173 17.8953,1.5243 5.2329,1.5706 10.7041,3.429 16.2328,2.4245 6.1134,3.9945 13.7,3.2609 20.6435,3.8265 5.2143,2.5097 3.6507,9.0779 3.4112,13.7147 0.3035,5.3674 0.9873,10.7218 0.8214,16.1489 0.25,16.4107 -0.79,32.8127 -2.1403,49.1521 0.4656,8.2402 4.6239,16.2143 2.606,24.5689 -1.1832,8.0707 -4.7878,17.6209 -13.3458,20.1989 -7.0592,1.9156 -14.475,1.0995 -21.6971,1.5834 -7.4873,-0.013 -15.023,-0.6416 -22.2758,-2.5821 z m -833.33329,-51.8495 c -7.70435,-2.2746 -16.88715,-1.2937 -22.98793,-7.465 -7.28813,-6.2199 -9.19049,-16.0432 -10.9826,-24.9601 -3.34229,-12.2732 -12.72094,-22.7371 -12.75865,-35.8856 1.44346,-6.3292 9.10362,-7.0229 13.36534,-10.7992 6.5058,-5.2108 15.88267,-1.6872 22.41623,-6.6907 4.56331,-6.5882 13.76602,0.5637 18.84496,-5.1489 6.68687,-3.4213 14.48015,-2.8318 21.56798,-4.9189 6.99561,-1.6839 13.88503,-4.0582 21.13973,-4.2901 5.74636,-0.1135 10.72911,-5.0475 16.32895,-3.3628 5.72734,0.5442 12.92489,-2.0193 17.24468,3.0936 4.98028,4.2199 12.86967,5.1269 16.20888,11.3909 6.13845,4.8715 4.98178,13.393 6.98399,20.1219 2.90145,5.3736 8.59618,9.0325 9.82999,15.3604 1.8833,7.1245 1.43182,14.6241 1.303,21.913 0.0733,6.6646 -3.85934,13.5421 -11.07971,14.138 -6.34638,0.5951 -11.52358,4.2668 -17.36406,6.3334 -10.91336,3.4403 -22.50182,3.4821 -33.66829,5.7237 -17.94693,2.7929 -35.96082,6.0098 -54.17181,6.0882 -0.76712,-0.094 -1.52974,-0.2876 -2.22068,-0.6418 z m 1192.83749,-21.019 c -15.6346,-4.725 -32.3377,-4.4711 -47.8253,-9.818 -7.4458,-1.745 -15.0666,-2.826 -22.3174,-5.3025 -9.2146,-2.1278 -17.8853,-6.113 -27.2044,-7.8475 -10.1165,-2.6241 -20.19,-6.4347 -28.361,-13.1177 -6.7487,0.9407 -13.2837,-6.0852 -9.4325,-12.1155 -1.8031,-4.253 2.1582,-7.6535 4.8276,-8.8063 0.2004,-5.7392 0.7085,-11.4292 2.3358,-16.9503 2.4363,-8.8863 7.4854,-17.1114 7.6119,-26.561 -0.4152,-6.7271 3.5118,-12.1453 6.1825,-17.9177 2.9638,-7.2218 -1.4731,-15.645 3.1105,-22.484 3.871,-6.083 11.9388,-4.7948 17.816,-3.0985 12.482,2.6307 24.6516,6.7504 37.3222,8.465 10.8413,0.2574 21.1121,4.4558 31.9162,5.0913 8.2975,1.5531 15.9991,5.4649 24.431,6.4233 6.0694,3.0354 11.5583,7.5871 18.8436,6.9545 5.8312,0.7713 13.4851,1.2576 16.2608,7.3252 2.7773,6.5737 -0.72,13.4155 -2.1945,19.8235 -2.284,6.2893 -8.6027,9.3894 -13.504,13.2894 -5.0117,5.7053 3.9602,9.5463 5.2083,14.3756 0.78,6.1973 -4.4571,10.8908 -5.2064,16.8031 -4.3622,12.3083 -5.7626,25.4658 -9.9832,37.7828 -2.006,3.8128 -5.8323,6.3543 -9.8377,7.6853 z m -923.9333,-35.5883 c -5.8304,-4.2638 -13.87366,-2.0219 -19.83148,-5.9913 -5.37862,-2.3802 -12.76769,-4.2142 -14.14273,-10.8754 0.15523,-7.6183 -6.65952,-14.2178 -4.16801,-21.9467 1.63102,-9.5227 2.23445,-19.5252 -0.6606,-28.8738 -1.00755,-6.5297 7.95634,-6.5908 9.83917,-1.675 6.71561,2.4515 8.75903,-7.3279 14.98226,-7.4822 7.24658,-2.2052 14.51269,1.7043 21.73818,0.024 9.53771,-1.9715 18.37484,-6.9561 28.30149,-7.0686 20.47746,-1.9944 41.15868,-3.3754 61.7012,-1.6638 6.47944,0.8156 14.67397,3.1826 16.5344,10.3192 1.6557,7.5046 0.90526,15.2723 1.213,22.8951 -0.1609,13.3752 -1.08209,26.8054 -3.91528,39.9041 -3.79274,6.3728 -12.0843,5.4415 -18.30767,7.2109 -7.2396,2.4426 -15.0786,2.7668 -22.06255,6.0218 -6.39448,1.1646 -12.68849,-2.4897 -19.11667,-0.7099 -8.92066,1.4612 -18.1352,1.6388 -26.88494,-0.9152 -7.90362,-2.831 -15.09443,4.8002 -22.94797,2.2763 -0.78461,-0.3953 -1.81831,-0.6121 -2.2718,-1.4499 z m 762.4292,-150.153 c -10.4858,-1.9585 -21.3839,-1.0818 -31.6924,-4.0531 -12.4818,-1.0151 -24.416,-5.0909 -36.6351,-7.5562 -11.1961,-2.9184 -22.5178,-5.2891 -33.8195,-7.7286 -3.6905,-1.0659 -8.0563,-1.387 -4.7369,-5.5074 0.5916,-6.0959 -5.4372,-11.1193 -3.5617,-17.3301 1.6684,-6.83 3.9107,-13.5967 3.8412,-20.705 0.7925,-9.1531 -0.7663,-18.2617 -1.6362,-27.323 -0.01,-6.3579 2.7319,-12.6292 7.5145,-16.8034 4.3079,-6.1953 12.5591,-4.699 18.8263,-3.3285 7.1999,0.7694 14.2319,2.6199 21.1734,4.5452 19.325,2.2626 38.7154,-3.1223 58.0201,-0.1289 6.8402,0.4666 13.5593,1.9287 20.0756,3.9605 8.999,1.4589 19.5184,-0.5392 26.8581,6.1353 5.6749,5.8929 3.7431,14.7266 3.7486,22.1068 -0.9024,16.8197 -5.6583,33.3665 -4.283,50.3089 0.059,6.8143 -0.1133,14.3616 -4.2409,20.077 -5.4666,4.633 -13.0548,2.4555 -19.5229,3.7606 -6.6384,0.3445 -13.3293,0.5154 -19.9292,-0.4301 z M 189.94638,1754.308 c 0.47322,-4.4191 0.79898,4.764 0,0 z m 0.75827,-10 c -3.25421,-1.9655 1.24643,-9.9821 1.5073,-3.2996 0.13304,1.0674 -0.41031,7.7471 -1.5073,3.2996 z m 275.28248,-13.1719 c -6.04211,-0.4159 -11.29803,-9.8646 -17.30107,-4.7538 -6.3741,3.8914 -7.90341,-4.013 -7.71019,-8.6948 -1.15186,-9.5006 -0.68903,-19.1091 -1.7686,-28.6 -2.04491,-5.4737 6.99081,-12.9822 -0.76212,-15.2635 -2.04527,-5.7217 0.13375,-12.7647 -0.42689,-18.9915 0.2244,-6.5655 -1.21584,-13.0286 -3.44048,-19.1361 -1.19501,-7.6583 1.22618,-16.3489 7.36751,-21.3295 3.89742,-2.962 9.2127,-0.7753 10.98182,2.9339 3.96354,1.0965 4.29416,-5.1866 4.09224,-5.7144 6.62734,0.1515 12.42593,-4.5212 19.11321,-3.779 11.00299,-1.7998 22.16521,-2.5097 33.24393,-3.3548 9.43679,-2.4563 19.00269,-4.2783 28.62477,-5.8332 6.68578,-3.0725 12.80988,3.5309 19.52172,1.2905 5.7383,-5.05 13.77414,-0.1981 20.34318,-2.8895 6.75756,0.7458 2.31007,11.2032 3.87905,16.1129 0.28585,12.9802 2.40078,25.8584 2.53879,38.8404 1.97366,4.7786 1.297,10.7163 4.52972,14.7121 6.05216,4.06 3.1062,11.962 5.46018,18.0161 1.45699,9.1117 2.32681,18.3444 2.07927,27.5788 -5.64328,4.1128 -12.77059,7.0787 -16.00224,13.6853 -4.99549,4.91 -12.19043,1.4465 -18.20275,1.6231 -19.03326,1.7651 -38.06055,3.9736 -57.20108,4.1314 -10.81482,0.3577 -21.64503,1.2828 -32.45825,1.0721 -2.21762,-0.3216 -4.39741,-0.8886 -6.50172,-1.6565 z M 1329.6864,1576.134 c -7.5974,-1.9644 -15.829,1.1997 -23.1614,-2.1869 -8.5643,2.6521 -17.4499,-0.092 -26.141,-0.4073 -16.1916,-2.3047 -32.5336,-3.6003 -48.569,-6.9264 -11.5848,-2.6034 -23.769,-1.2407 -35.2066,-4.78 -12.0815,-2.057 -24.483,-1.4003 -36.5623,-2.9882 -6.0756,-2.7476 -11.6921,-6.8579 -18.4235,-7.8177 -6.0436,-3.052 -4.0494,-12.7437 -10.9962,-14.7862 -9.094,-1.1543 -18.3674,-0.5499 -27.3731,-2.4542 -3.99,2.0437 -10.5294,3.5683 -9.964,-3.1194 -4.1709,-6.6456 -1.2104,-13.9973 1.9699,-20.2091 1.9331,-6.1244 1.7043,-13.2384 -0.8635,-18.9478 -3.8759,-4.9435 -10.5405,-3.952 -15.9888,-5.3924 -12.03,-2.0968 -24.5419,-2.6669 -35.9525,-7.3377 -6.3314,-4.3722 -0.9385,-12.9647 -4.4576,-18.8305 -1.5068,-6.9889 2.3751,-14.4844 -1.2559,-21.1385 -1.0249,-3.4658 -0.6699,-14.8034 -6.4352,-10.4338 -4.0052,5.1092 -5.5196,11.649 -8.6084,17.3025 -2.7937,6.6905 -7.7425,13.3361 -15.3619,14.5852 -5.9162,1.5249 -13.86909,1.857 -16.52166,8.4327 -3.04939,6.3803 -3.87376,13.5752 -7.12286,19.889 -3.08952,7.4456 -5.82324,15.2328 -10.43089,21.8807 -6.92033,6.5691 -17.154,3.8548 -25.60016,6.066 -10.04427,2.1443 -20.27707,6.0111 -27.38922,13.6689 -6.1593,4.5897 -14.30945,3.1094 -21.14709,5.8738 -6.11215,1.9244 -12.47379,2.7855 -18.84098,3.1366 -6.02787,0.9014 -11.95719,2.3535 -17.82942,3.9671 -10.22086,-2.2632 -20.54853,1.0464 -30.82097,-0.1178 -16.16115,-0.8953 -32.33995,-1.4122 -48.45239,-3.0442 -11.77306,-1.1783 -23.6131,-1.5315 -35.39232,-2.5095 -7.90584,-1.1237 -16.18411,-1.8212 -23.44742,-5.3253 -5.06022,-3.9294 -11.73046,-8.4762 -12.59875,-15.2251 -0.40951,-4.6954 0.48796,-11.3701 -5.01417,-13.401 -6.665,-0.8516 -13.14541,-2.7367 -19.6034,-4.5873 -7.40342,-1.5315 -14.93812,-5.8793 -18.29799,-12.8478 -2.20934,-6.9716 1.75066,-14.7273 -1.94361,-21.3858 -6.53425,-4.2932 -14.82986,-3.2353 -22.03907,-5.6798 -8.2141,-2.0996 -16.56352,-8.0388 -17.43892,-17.1 -0.78259,-6.4372 3.08095,-13.7998 -1.53043,-19.4569 -4.31966,-5.251 -12.85539,-5.5931 -18.00868,-1.3935 -4.38254,-3.4737 -10.27785,-6.6349 -15.27368,-4.4611 -4.20994,-5.4196 7.6713,-6.883 4.54367,-12.7499 -1.25915,-6.4914 -4.26829,-15.3247 2.41036,-19.928 6.10341,-2.489 9.48572,-9.1785 4.48308,-14.5723 -3.78279,-5.0175 -2.44709,-10.72 1.74076,-14.5594 1.18626,-6.4342 -4.45906,-11.3743 -5.4487,-17.5105 -6.15584,-18.0863 -9.27623,-36.9786 -12.59983,-55.7287 -3.32703,-16.0505 -4.25967,-32.4731 -4.04059,-48.8312 -0.0902,-9.9077 -0.92092,-19.82 -1.22147,-29.6982 1.29377,-7.8759 2.0337,-15.8647 1.38514,-23.8364 0.2217,-15.689 3.40911,-31.2007 2.97388,-46.9227 0.36549,-23.8548 -2.01798,-47.6467 -2.20699,-71.4836 0.28849,-13.5156 3.40879,-26.7155 5.99473,-39.9121 1.97219,-12.0204 3.54292,-24.40847 9.09944,-35.41982 5.65616,-4.45414 2.17736,-13.988 8.79431,-17.70826 7.87271,-2.37569 13.28787,-10.49176 22.0371,-10.36689 7.97219,-0.43744 15.97694,-0.15919 23.91049,-1.24782 16.5499,-1.4744 33.11375,0.45968 49.63421,1.41706 11.44422,1.24469 23.37639,1.12516 34.15145,5.65739 6.0764,2.46448 10.74023,8.06435 11.16027,14.75161 0.88195,7.05886 3.59943,14.34358 -0.25534,21.09552 -2.90578,7.94451 -3.89823,16.43651 -5.92273,24.63601 -4.35877,20.082 -6.98295,40.7186 -5.06387,61.2717 1.06693,14.006 3.60025,27.9767 2.46878,42.0661 -1.16408,23.1469 -5.03986,46.1343 -4.6192,69.3618 -0.36316,27.0343 -1.23212,54.3036 3.04108,81.0995 5.18889,29.9978 16.39201,58.8508 31.78319,85.0613 15.09958,24.6147 36.01398,45.338 59.45132,62.0303 5.25586,2.9373 10.55313,-1.8676 13.35784,-6.0145 2.86183,-4.2837 6.59686,-8.005 8.50668,-12.9106 1.51033,-4.5276 5.20426,-8.2262 5.73488,-12.9815 -2.12966,-6.7019 3.41262,-10.0644 7.98426,-13.4669 5.54304,-4.4258 10.3743,-10.303 11.37556,-17.5437 1.1744,-6.4321 4.86002,-11.7927 8.49606,-17.0376 8.93013,-14.8575 14.62221,-31.3271 21.3491,-47.2262 9.98128,-26.7895 18.43902,-54.2901 23.14951,-82.5286 1.2501,-9.1144 2.16143,-18.2664 3.61185,-27.3454 0.70641,-8.7632 0.85908,-17.6062 2.54183,-26.2494 0.7638,-13.3899 -0.55191,-26.9127 1.72169,-40.1996 -0.95117,-6.3865 -3.64507,-12.4636 -3.14776,-19.0264 -1.96764,-17.5601 -1.66654,-35.3312 0.61374,-52.8417 0.63033,-8.5673 0.81514,-17.2847 -1.01273,-25.7018 0.32447,-7.4147 1.31002,-14.8356 0.56063,-22.274 -0.36523,-6.6024 -2.55823,-12.98046 -2.0002,-19.64749 1.07888,-7.13726 -7.68803,-12.86965 -2.52868,-19.7872 4.69557,-3.78295 1.0963,-11.41032 6.63283,-13.875 5.78429,-0.43199 10.92712,-5.90917 17.28897,-3.66788 3.9249,0.10945 7.6126,-2.74184 11.52543,-3.59726 5.47105,-1.82792 11.35603,-1.41889 16.82444,-3.32847 7.11617,-1.89981 15.25426,-0.0734 21.54881,-4.75911 6.6851,-3.78704 14.5474,0.80605 21.6322,-1.26974 14.8831,-1.91908 30.3339,-2.09469 44.8389,2.14573 5.589,1.62577 9.0703,6.93504 9.3037,12.59031 0.9191,8.43095 0.1708,16.94063 0.9277,25.38861 1.2952,34.857 2.7205,69.7185 4.523,104.5485 2.7623,20.167 9.2976,39.5354 14.2968,59.2005 6.377,20.9372 13.2008,41.9897 14.8845,63.945 3.7554,24.617 8.8392,49.0252 14.5339,73.2593 5.771,22.518 15.796,43.7303 28.2417,63.2994 5.4972,9.2816 11.7316,18.0948 18.2254,26.6906 7.5755,12.0065 18.6784,21.0806 28.1478,31.4924 3.9206,4.0452 7.4425,9.3335 13.4867,10.1822 5.4998,1.0266 11.1625,1.3005 16.4425,3.2726 16.6745,3.606 33.7614,0.8137 50.4169,-1.3447 9.0023,-0.1981 18.1539,0.341 26.9769,-1.6268 7.0304,0.2902 14.2823,-1.8371 20.0127,-5.8697 5.4437,-4.8217 10.0426,-12.4111 7.5497,-19.8601 -0.8337,-6.9158 0.8069,-13.8827 -0.2652,-20.8084 -1.0179,-12.5799 -3.5,-25.1603 -8.5691,-36.7693 2.6211,-6.231 -3.4945,-10.5253 -5.2146,-15.5649 -3.3376,-4.9198 -6.7217,-11.2357 -0.9334,-15.9798 4.7024,-5.0303 5.0262,-12.3384 1.1577,-17.9281 -3.434,-5.1919 2.1764,-7.1443 6.1204,-8.1597 6.8776,-4.6755 -1.4875,-10.7853 -0.1134,-16.5733 0.8888,-3.9566 -0.049,-9.1135 -4.3564,-8.054 1.9653,-5.3025 -1.6467,-9.9527 -0.9905,-15.3009 0.1158,-7.1232 6.3008,-11.6421 8.5779,-17.9137 0.1025,-4.8651 2.2086,-9.3039 5.796,-12.6267 3.1971,-3.1118 5.342,-7.3303 4.8084,-11.8808 0.4557,-9.1749 -1.1797,-18.615 -5.7825,-26.6311 -2.0073,-5.2626 2.7232,-13.1497 7.8669,-7.8014 7.4711,-0.7871 1.2889,-9.7013 0.2243,-13.6427 -0.3336,-5.702 3.7839,-11.7927 0.2026,-17.1279 -1.2551,-6.6455 -9.5106,-13.9688 -4.894,-20.1623 2.9469,-4.6422 3.4922,-11.1836 -0.6127,-15.3144 -2.3778,-5.7154 -4.4414,-12.575 -10.8012,-15.0555 -6.5749,-2.5826 -11.5177,-10.7052 -8.4781,-17.5186 1.9116,-2.8792 9.123,2.848 7.7722,-3.8885 -4.3715,-7.629 -9.4332,-15.5119 -9.7375,-24.6205 -0.04,-6.3638 -2.6901,-12.0751 -4.6597,-17.9397 -3.1304,-5.14823 -2.7506,-11.07483 2.6368,-14.19375 3.3038,-5.09086 -4.1467,-10.87767 1.625,-15.68545 3.8002,-6.32329 -3.4525,-11.61431 -6.7253,-16.28495 -4.3998,-6.9164 -2.9114,-18.43672 5.1787,-21.99766 8.5783,-3.09814 17.861,-2.93155 26.8211,-3.95139 12.5776,-0.90468 25.262,-0.26691 37.7902,-1.68568 12.0262,-2.24374 24.3437,-1.63463 36.4983,-1.16732 12.4494,0.89041 26.333,4.32313 33.719,15.3047 10.2112,18.35072 14.1703,39.24922 19.6546,59.3175 3.7372,14.9917 5.0194,30.4657 9.0945,45.3838 5.396,23.6532 11.8773,47.0371 18.992,70.2259 7.0857,24.9276 11.3777,50.7106 12.0794,76.6352 1.1018,17.2051 2.8926,34.5103 0.7093,51.7135 -1.5511,14.8278 -3.5915,29.6424 -6.4349,44.2678 -3.7336,5.6855 -1.347,11.9922 -2.6921,18.0717 -2.9701,8.5639 -4.0424,17.664 -3.3333,26.6942 0.9991,14.1669 3.999,28.1423 4.1701,42.3802 0.629,13.0123 0.9993,26.0815 3.0769,38.9662 -0.8667,6.1053 3.4034,14.5497 -3.075,18.6682 -6.4046,4.4201 -14.377,8.3997 -16.6502,16.4999 -3.1242,8.0222 -5.2674,16.4655 -9.4253,24.0555 -4.1757,4.0607 -13.766,3.5918 -12.9694,11.5338 -0.9573,8.7318 -6.5066,16.0288 -12.9203,21.6554 -3.2979,2.4309 -6.2469,7.8999 -8.8024,9.2875 -7.4318,-5.0406 -11.4351,6.1763 -13.21,11.577 -5.8068,12.6519 -10.4243,27.5745 -23.2539,34.947 -8.1919,4.8785 -17.9916,7.8553 -27.5357,6.9427 -5.8265,-1.4154 -12.9005,-2.2696 -17.718,2.1224 -8.9929,3.5091 -18.8745,4.1819 -28.4287,4.0117 -1.3908,-0.1354 -2.7757,-0.3264 -4.1547,-0.551 z"
       id="path313" />
  </g>
</svg>
