<?xml version="1.0" encoding="UTF-8" standalone="no"?>
<!-- Created with Inkscape (http://www.inkscape.org/) -->

<svg
   version="1.1"
   id="svg112"
   width="10616.003"
   height="1881.1646"
   viewBox="0 0 10616.003 1881.1645"
   xmlns="http://www.w3.org/2000/svg"
   xmlns:svg="http://www.w3.org/2000/svg">
  <defs
     id="defs116" />
  <g
     id="g118"
     transform="translate(2.6143808,-10.031403)">
    <path
       id="path236"
       style="fill:#fefefe;stroke-width:1.33333"
       d="m 8949.4212,7.052136 c -31.0422,3.848901 -62.4481,4.571357 -93.5156,8.419922 -25.0528,-0.402981 -34.9781,27.058945 -54.1836,37.984375 -23.8579,6.470313 -50.2278,1.660662 -72.6797,13.560547 -26.0776,20.840685 -62.5092,13.685443 -90.9492,28.660156 -17.7294,14.025714 -24.1614,37.274594 -33.4258,56.962894 -4.3796,16.07447 -5.5529,39.94182 -26.0664,43.33007 -26.9794,-2.98382 -53.6345,16.79355 -59.3906,43.19727 0.6125,25.48391 -23.6642,39.83604 -44.4922,48.07813 -22.6619,14.67878 -19.492,44.66069 -29.3789,66.71875 -14.7993,21.08516 -12.9903,48.50849 -25.4941,70.53906 -12.5264,14.69601 -17.5171,33.51727 -23.5996,51.42383 -8.0851,15.95295 -12.1694,33.19906 -16.9141,50.44531 2.3652,18.28933 -2.5125,33.90701 -16.127,47.32226 -10.9627,31.63145 -21.3269,63.99395 -26.2714,97.2793 -1.1554,25.83088 -11.0105,50.32907 -11.1426,76.35547 -5.4023,19.99028 2.3289,38.73522 5.1367,57.56836 -6.8895,22.42915 -14.9562,44.16675 -23.1406,65.14453 -1.8311,17.8269 -5.0661,35.19531 -13.377,51.10156 -15.746,12.92622 -4.1255,29.74221 -13.6933,45.41797 -6.0772,18.36997 -26.28,35.5003 -17.9903,55.7227 15.0109,14.7822 -1.4837,33.2617 -8.4863,48.2421 -13.6196,19.4792 -15.2058,43.738 -16.0586,66.6993 -4.7062,29.8839 -1.2973,60.3122 -5.4238,90.2343 -12.7307,20.5588 -5.6298,48.038 -21.168,67.3399 -9.6136,18.1977 -15.8627,38.721 -18.6367,59.2422 2.1701,21.238 -3.3297,41.6243 -5.4277,62.6386 10.8184,20.8516 -0.8971,43.1748 -0.1172,64.9864 5.3161,19.8754 -9.6759,36.0503 -16.7852,53.1015 -8.4102,16.0293 7.8903,32.4055 -2.7988,48.3848 -3.3081,22.7154 -3.5765,46.0922 -4.4844,69.1211 3.0194,32.2071 -16.0918,61.5161 -13.7598,93.5723 5.2575,22.5643 -18.8436,48.7029 1.2364,68.0332 23.5959,2.1078 40.0377,27.1064 35.8222,49.7343 3.8281,-3.4244 5.7641,-8.4676 6.2774,-13.4785 -1.1791,-13.6608 -3.9565,-53.1002 18.541,-43.4082 8.6542,15.7084 8.1904,-7.5772 17.4141,3.4668 14.0965,14.0653 33.4494,8.7442 34.582,-11.7969 6.8193,-18.6963 26.2743,-8.3338 23.3281,8.5371 9.161,17.5602 10.159,-22.1787 15.6406,-3.498 -4.2877,16.4265 3.9684,-0.5402 4.4942,-6.5684 4.2973,-22.7473 5.8196,-45.9852 6.959,-69.1386 3.3031,-80.7554 5.1566,-161.8601 16.9179,-241.9453 6.7692,-90.2935 18.1651,-180.1732 28.4375,-270.125 4.9446,-65.0361 22.4285,-128.0403 35.3145,-191.7305 9.6362,-65.46592 30.0921,-128.53725 46.4707,-192.47071 9.8253,-58.71431 28.0798,-115.50508 43.418,-172.91407 14.0407,-65.62791 40.5499,-127.47733 63.6347,-190.21679 4.9894,-23.53529 28.7631,-37.16056 33.545,-60.59571 -0.4666,-14.24125 3.1391,-28.15766 5.6738,-42.21679 3.1675,-12.66995 8.3639,-30.4958 22.1543,-33.82032 14.819,-3.75919 42.4918,-9.97896 42.5488,-26.64843 1.7514,-16.63514 7.5486,-40.51923 29.4004,-37.30078 15.0411,-1.72585 36.801,4.28482 45.6855,-9.96875 1.8357,-25.83561 28.5436,-14.30337 45.4766,-17.83594 24.8139,-4.61966 49.7821,-6.87533 75.0117,-7.5293 18.1427,-5.33635 46.3428,-5.50518 52.9141,-27.02539 11.3156,-15.05839 32.0805,-13.44271 48.8359,-12.93945 28.2444,-0.56092 56.4984,5.30695 84.6621,1.78515 24.1668,-7.61412 49.369,-14.10634 75.0157,-12.15234 27.0273,5.21606 54.6898,5.02456 82.1054,3.57031 24.0092,0.86517 47.691,0.77869 71.6836,-1.83203 21.7111,8.36552 43.0574,22.27109 68.8028,20.14063 20.6911,1.31361 25.6426,25.12524 38.7343,37.08007 16.0677,15.1571 43.3309,-3.88373 56.5762,18.9336 9.355,20.76452 17.7501,42.30313 41.0137,51.80664 18.8102,11.82831 6.2571,43.83757 29.8105,52.18945 12.0675,20.3905 33.467,34.61454 41.0352,57.75195 3.5499,28.38525 35.357,38.3707 47.3847,61.86915 8.0291,27.97187 27.6856,54.53728 22.3145,84.9414 14.7331,19.10321 26.0658,40.99469 32.0391,64.42188 4.4795,38.22319 21.2,73.22888 34.9218,108.73437 11.3859,32.75146 19.2129,66.76778 34.0254,98.30469 11.5932,21.5319 16.4652,45.47908 21.0957,69.27734 9.9018,59.67345 33.2692,116.05517 43.3399,175.70707 14.1861,83.4234 36.718,165.2189 49.9433,248.7988 4.2359,36.3857 13.8357,71.7419 19.4297,107.8848 4.8143,38.8994 18.2625,75.8933 25.7969,114.207 4.0103,36.9226 8.9032,73.8331 17.7734,109.9648 5.9466,31.9967 20.609,62.5749 18.9297,95.6641 -0.3955,20.2148 -11.4208,50.0614 11.9649,61.5352 31.9061,1.0138 63.8957,1.0596 95.7307,-1.5782 26.456,5.0671 51.43,-20.0227 44.177,-46.4765 3.352,-34.3723 -7.684,-67.3827 -15.71,-100.2774 -12.758,-46.1207 -16.09,-93.9696 -25.596,-140.7187 -10.597,-49.8455 -22.5062,-99.3896 -32.8205,-149.2989 -13.1221,-27.2873 24.4165,-34.893 30.2985,-56.5097 6.917,-22.2433 38.881,-25.7963 47.356,-48.2305 9.996,-20.0433 35.631,-13.0703 52.683,-21.6035 13.759,-16.5729 29.648,-37.1897 55.627,-34.0039 19.676,-0.067 27.336,-21.846 36.575,-35.7774 11.343,-21.4703 43.389,-10.572 53.849,-35.164 4.303,-25.498 33.831,-25.1802 45.988,-43.6289 -1.188,-22.932 22.882,-23.8155 39.229,-28.3887 16.871,-15.4387 13.77,-50.9815 41.781,-56.4707 22.72,-3.4002 20.204,-32.25611 34.983,-44.76172 19.592,-4.98322 40.786,-12.31355 48.455,-34.62109 10.162,-18.8292 40.871,-22.85669 42.236,-49.39454 2.251,-27.21183 39.675,-30.46161 43.779,-56.72265 0.262,-26.94427 33.935,-32.15391 42.774,-54.55078 0.989,-38.39379 1.322,-76.8037 1.027,-115.20899 8.28,-25.39614 -15.709,-38.85456 -36.305,-45.46484 -5.353,-16.04191 -23.004,-21.26307 -37.611,-25.30469 -16.479,-2.96373 -29.46,-12.07723 -28.449,-29.77539 -11.708,-16.84256 -38.047,-14.45085 -56.609,-18.60547 -21.57,3.52884 -33.392,-10.65277 -45.094,-25.90625 -19.046,-13.53245 -43.697,-3.12581 -64.758,-8.75195 -15.513,-10.14307 -22.278,-35.53691 -45.82,-33.61524 -19.215,-7.33902 -39.97,1.13686 -59.539,-3.77929 -17.913,-7.37035 -27.755,-30.77602 -50.936,-29.26563 -20.241,-7.27793 -48.087,9.12326 -62.971,-10.67578 -3.166,-14.37749 -11.866,-28.49358 -27.773,-30.76953 -29.893,-5.9767 -60.699,-5.42489 -90.7794,-1 -20.3633,7.12307 -37.28,-9.72083 -41.1191,-29.04687 -3.4807,-23.11472 -24.2441,-35.24723 -46.3965,-35.39063 -20.0211,-5.16669 -46.3824,11.07626 -61.4727,-7.92578 -2.8434,-16.65168 -2.5679,-39.91424 -26.5801,-39.83594 -23.5444,-5.2186 -48.4984,9.99059 -70.7031,-0.73047 -4.0522,-16.71083 -5.0779,-49.12179 -31.5195,-49.15429 -18.5754,-5.14431 -38.2087,9.95631 -55.7988,0.86523 -6.8285,-25.03843 -35.4368,-35.18034 -58.7051,-24.85352 -18.4791,9.67469 -50.7844,2.74517 -47.7324,-23.17382 -6.7703,-25.30725 -36.2421,-30.47669 -58.2911,-34.94141 -20.197,-5.44277 -28.512,-26.99551 -43.3105,-40.37305 -3.9428,-16.55179 -21.6635,-15.54495 -25.5957,-31.066403 1.3572,-21.441851 -27.1573,-17.631737 -40.9922,-26.179687 -15.1017,-7.959033 -22.5755,-26.176906 -42.1816,-25.732422 -19.6357,-1.891398 -39.8827,-2.343115 -59.2364,1.40039 -22.4175,0.398588 -44.5041,6.509793 -66.0175,8.605469 -20.2379,-5.600782 -26.6673,-31.918801 -48.959,-33.839844 -28.6078,-1.517791 -57.5076,10.865251 -86.0176,3.21875 -22.13,-9.8569024 -46.7854,-6.137184 -69.7852,-2.068359 -21.8499,6.308533 -41.5713,-10.9217072 -63.6543,-9.455078 z M 2433.8158,42.862683 c -20.9017,8.893253 -50.695,-5.067716 -65.7481,15.02539 3.2497,30.337586 0.815,60.757957 0.8145,91.160157 -1.1246,26.3125 3.6276,53.12678 -2,79.04492 -13.3533,20.99871 7.7103,43.23679 -3.1133,62.76563 -18.8241,16.74899 3.128,37.91672 2,57.18945 -15.9137,22.71927 -4.5065,50.50305 -7.6914,75.83203 5.1202,25.7888 10.9103,52.39882 6.0078,78.69531 0.1757,18.08467 0.5668,36.49257 1.7402,54.65821 7.9588,42.75989 5.6286,86.5171 5.9004,129.82226 -0.9598,37.89153 4.5164,75.53776 5.0371,113.34571 1.6021,20.01223 -14.3988,37.18025 -10.1464,57.16796 19.0727,19.22221 3.7694,43.80133 -2.9141,65.00391 -0.058,24.71233 -0.9985,49.58792 -1.0195,74.36914 10.3248,25.74904 -16.2662,35.16504 -28.6875,51.85544 6.4628,20.0349 -14.1294,44.8137 -34.9766,31.3516 -28.7021,1.6809 -57.593,-0.5472 -86.1758,3.2031 -20.593,6.1679 -44.7282,9.817 -63.5527,-3.3633 -22.0241,-16.1634 -49.3886,0.2051 -73.711,-4.6464 -20.6095,-12.8287 -45.4585,-15.5231 -68.3671,-23.0098 -13.7907,-20.3251 -2.7145,-48.5885 -18.7246,-68.08986 -10.1974,-47.80852 -4.0037,-96.84033 -4.4278,-145.22461 -4.7509,-94.95226 11.3947,-189.56744 6.252,-284.50195 -4.9661,-38.46093 -9.3676,-77.25888 -7.3008,-116.13672 4.9342,-50.04019 -0.6787,-100.82265 -13.8672,-149.26953 -4.1372,-24.96529 -19.2966,-45.88199 -36.6113,-63.57813 -12.015,-17.7125 -29.3474,-30.71373 -47.625,-41.48632 -21.6746,-5.16355 -12.9529,-30.19357 -31.5664,-39.3086 -21.8557,-9.61362 -46.7823,-4.43718 -69.7364,-2.1289 -17.4127,5.16709 -36.9827,-0.82397 -52.8886,6.29297 -4.5111,8.55049 -22.4894,13.22978 -21.416,17.80859 5.3411,19.74086 -23.0391,-0.007 -28.3848,-6.29492 -11.5075,3.32586 16.124,16.51213 10.8047,23.41601 -11.7221,7.81239 -18.6881,42.40805 3.5527,27.83594 31.1217,8.16015 58.1787,31.68224 72.0645,60.69336 6.8339,26.26587 12.6261,53.05 17.6015,79.81445 9.9247,44.74286 0.8629,90.31385 1.8614,135.46875 8.281,60.26594 6.3702,121.27936 3.7871,181.88672 1.1,59.01501 -11.8662,118.00164 -3.7168,176.88867 -6.3524,41.33251 -4.5057,83.36603 -1.043,124.87305 1.3109,25.83533 6.6137,51.49333 5.6074,77.33403 -6.5818,18.8649 11.4905,28.6158 13.6094,43.4589 2.322,24.0365 34.676,25.0113 37.5449,47.8243 0.6164,18.7021 -5.8985,37.172 -12.3183,54.3164 0.3191,28.0446 37.2411,20.7218 55.4765,23.5547 22.9576,10.9793 14.6084,44.6954 37.2676,55.7949 21.2178,11.3768 52.8253,1.2673 65.748,27.3613 9.2353,22.7243 -3.5054,47.5449 -3.7656,71.1895 -6.6828,25.5438 -9.9796,52.2295 -5.6992,78.498 1.5261,21.1708 16.0532,3.496 14.5586,-7.9219 3.3011,-24.5539 -7.4364,-49.338 -1.5195,-73.6758 14.0063,9.544 31.3562,-19.2192 22.3437,-39.1406 -6.2723,-20.8941 9.2132,-38.6977 5.7383,-59.623 13.7378,-15.7574 10.9561,24.4343 29.4277,17.8515 20.0242,-6.1164 41.6047,-5.9301 61.6817,0 25.1852,9.8929 52.6273,8.583 79.1894,8.4668 47.0281,2.2481 93.95,-4.2887 140.9278,-2.5332 19.4701,2.0911 41.8551,-11.3887 58.6757,2.793 14.1658,21.1073 -10.2501,45.23 -6.5019,68.6523 2.7563,30.06 -2.4797,59.8811 -6.9453,89.5098 1.4062,20.4429 -7.3865,41.842 -30.7774,43.4121 -28.921,4.0738 -18.3053,40.2026 -26.5195,59.8145 -10.5544,17.0157 -33.6085,12.8306 -48.9258,22.3515 -12.0414,13.6016 -18.2158,36.4506 -42.3223,32.3164 -24.4575,0.4775 -46.6291,11.3503 -67.8886,22.3614 -17.2142,6.7492 -36.6175,1.846 -54.4024,7.3359 -17.8885,1.0613 -32.5845,17.3897 -48.5488,15.8203 -8.7513,22.0518 -33.7462,15.4892 -53.0469,14.2754 -23.4831,-0.3232 -52.0616,-4.6713 -58.5039,-31.9707 -0.8175,-22.8314 -4.8791,-49.2548 -30.1738,-58.5664 -4.6134,-48.8685 -7.362,-98.1121 -3.7344,-147.1445 -1.2899,-20.5276 12.1773,-47.947 -8.3281,-62.461 -35.7036,-8.7083 -73.4327,-13.7293 -109.8438,-6.5996 -17.6337,0.33 -34.7947,3.8158 -41.08,22.4219 -19.0185,0.5146 -32.5924,19.1281 -25.3535,38.3047 -6.5544,25.4279 -1.8834,51.739 -1.2325,77.5351 4.4563,22.7828 3.2252,46.5649 -6.7656,68.0957 -8.2509,21.8986 26.5715,35.0421 14.6816,58.8653 2.2468,17.5619 21.0987,36.5435 5.8536,52.9629 -14.7107,19.2062 7.1029,46.7359 29.1875,42.2988 26.6822,5.9321 16.1532,38.6576 25.664,56.9258 13.8786,14.6326 35.3268,14.8358 53.8008,18.4922 19.2053,1.9224 37.4345,9.3031 44.2598,29.2402 15.1554,20.8083 46.1699,15.2532 68.1015,24.5527 44.6635,0.5464 89.1188,5.3543 133.4942,10.0508 24.9813,-0.6553 52.571,4.4571 75.0527,-9.4785 20.2304,-17.3906 48.1252,-6.6448 71.9824,-8.8945 23.4201,2.5779 45.6328,-7.6737 61.3164,-25.336 17.7902,-19.219 46.2047,-8.1769 68.0645,-17.205 20.0893,-6.0448 31.3559,-25.1735 37.6367,-43.9122 2.8213,-24.1761 27.0664,-30.639 48.1563,-29.7734 26.6214,-3.0802 29.3918,-35.1463 34.7011,-55.9336 4.0909,-18.9717 -0.5369,-49.7754 25.6446,-53.3281 21.6745,-6.5721 25.8163,-31.8752 28.4961,-51.2051 7.7792,-36.647 13.1184,-73.7422 18.039,-110.8828 -0.098,-22.4903 19.6005,-38.4087 21.9414,-60.1816 -2.7343,-36.5056 -2.1666,-73.4534 -3.4844,-110.1504 -3.0951,-26.1347 3.9044,-51.7673 4.8008,-77.752 -1.69,-16.2864 -1.9654,-32.6062 -1.7226,-48.9961 2.8269,-24.0707 -26.4242,-34.0168 -23.5254,-57.9453 1.5994,-24.9006 -0.8308,-49.8664 1.8828,-74.7422 3.2189,-17.7691 -0.8127,-37.68709 10.6348,-52.99608 15.8232,-16.2549 10.1923,-38.21105 8.3125,-58.11328 -1.2208,-46.45294 -5.9087,-92.82936 -4.0332,-139.33203 2.2795,-42.63652 5.2877,-85.37253 1.3457,-128.0293 -0.8608,-38.87991 3.4907,-77.79251 2.5332,-116.73242 -3.1273,-74.59506 -4.9067,-149.27013 -3.4297,-223.9375 1.7615,-29.71456 0.4995,-59.52902 -5,-88.83398 -8.6885,-32.87325 5.1805,-65.09212 14.5195,-96.08008 -0.8456,-27.400859 34.1577,-33.756697 40.2012,-58.013672 -20.2758,-12.293472 -44.4972,-14.274272 -67.5664,-16.314453 -42.192,-4.761264 -84.4865,-13.325463 -127.1543,-8.732422 z m 1047.3476,4.009765 c -13.9524,-0.252347 -27.8818,-0.113639 -41.707,1.992188 -16.6585,-0.182823 -27.3903,11.741033 -40.8125,17.765625 -11.0869,-9.86132 -18.7858,-3.724171 -18.9727,9.619141 -15.4536,10.499652 -39.3395,-8.096821 -58.6464,-5.585938 -22.5804,-5.853324 -46.0984,-6.188381 -69.3262,-5.382812 -19.166,2.220121 -39.6674,-2.639409 -57.7949,5.326171 -5.2931,16.005174 -22.5602,27.663634 -40.6895,20.882813 -24.1811,-10.514213 -52.4381,-8.379905 -74.9043,5.458984 -34.2254,-12.037417 -70.7851,-4.541033 -106.1133,-5.576172 -24.437,0.07001 -53.413,-8.801146 -73.9629,8.710942 -30.7489,3.60703 -62.3365,-0.784999 -92.3906,8.22461 -17.6129,5.21028 -35.3354,10.33504 -52.5215,16.37304 -21.2344,10.73409 -15.736,36.57637 -15.2422,55.89844 -4.8288,21.00847 -9.6,41.51103 -5.7617,63.87109 4.5555,21.16558 7.726,42.62438 10.7696,64.10547 3.3707,14.03537 3.513,27.23871 -1.7813,40.65821 -3.3822,30.13597 5.5135,60.20532 2.3379,90.44921 -2.8466,40.16197 -5.0354,80.66533 1.4453,120.61133 6.2628,39.0351 -3.9579,78.07369 -1.4277,117.16406 0.2567,28.70416 1.4012,57.54017 5.164,86.09961 5.4729,41.38606 4.8894,83.12219 6.127,124.7461 0.1543,31.26146 11.2127,63.6704 -0.1465,94.09961 1.5225,30.26403 0.7286,60.57243 0.6426,90.85743 -2.517,22.6743 3.7781,44.5699 6.1445,66.8926 -4.1102,20.0835 -2.7444,40.7454 -1.2715,61.1191 -0.8723,31.596 -1.8166,63.31 1.6172,94.8359 -5.8829,19.3261 1.3701,39.0969 1.5996,58.6211 -3.2067,20.3561 -8.1904,41.1937 4.1895,60.2735 10.8931,21.154 10.0082,47.0984 -6.5723,65.25 -21.5213,19.8318 0.6027,45.6375 9.3653,65.6269 -5.8847,16.0421 -1.1217,34.4619 0.062,51.8418 -11.9917,18.6226 -6.8372,41.765 -12.0704,62.2696 -12.1706,29.3563 -2.9125,61.9196 9.4766,89.5703 5.4362,23.598 26.3019,36.1157 48.0781,42.6816 25.3342,17.337 55.7213,1.1502 83.3008,6.3047 22.5703,8.6915 47.0459,4.7913 70.5332,7.4805 22.876,6.1369 46.671,5.0369 70.127,5.0879 29.2817,-1.5175 58.4386,2.1152 87.6211,4.0898 32.9025,-4.6248 65.2301,5.7015 97.9511,7.209 14.7726,-3.0072 29.8786,-1.1187 44.7832,-0.5801 35.3409,2.5124 70.6837,-0.928 105.6582,-6.0098 32.0104,-5.141 64.4085,-5.078 96.7051,-3.6406 20.1933,3.7011 40.704,-3.9951 47.9766,-24.25 7.9859,-25.249 34.4893,-10.3332 50.6269,-22.3301 16.8357,-10.2965 20.3524,-31.7752 13.3516,-49.0507 0.3848,-38.2701 12.7936,-75.237 15.2402,-113.3672 -0.5833,-96.98 1.7466,-193.9667 3.668,-290.9317 2.1131,-72.516 0.091,-145.0235 -2.002,-217.5117 -2.7229,-94.3928 -3.5588,-188.82661 -3.0214,-283.24999 0.7771,-42.27934 -6.8949,-84.38736 -3.7481,-126.63281 6.3996,-38.18326 2.1433,-77.01065 -0.8965,-115.33203 -5.3562,-46.01833 -3.1334,-92.3345 -4.6093,-138.52735 -0.1576,-45.9311 -7.6369,-91.77515 -2.6915,-137.66211 5.6098,-50.89433 11.3582,-102.63239 1.6426,-153.44921 -5.6956,-20.25608 -5.407,-41.73742 -11.9668,-61.761723 -6.4984,-22.702377 -32.061,-30.79933 -53.3125,-30.88086 -13.9144,0.540641 -27.8894,-0.103122 -41.8418,-0.355469 z m 3991.043,8.111329 c -21.6305,0.125654 -36.268,18.124183 -55.8652,23.773437 -26.0707,1.10202 -53.5138,1.088558 -77.9141,11.871094 -21.9311,9.320556 -24.3785,37.061382 -20.3398,57.576172 6.3294,25.41259 9.1395,51.50058 8.7949,77.69141 2.0524,19.94968 5.0026,40.06661 3.0547,60.25586 -5.3981,54.30985 -5.6387,109.03255 -1.0742,163.41796 6.5683,61.95564 7.4796,124.35181 4.625,186.56055 -5.0739,72.21826 0.9107,144.48124 1.8281,216.7168 -2.5224,129.95632 -4.122,259.93964 -5.0996,389.92184 0.7895,79.2998 -3.7344,158.5722 -1.8614,237.8653 6.9086,79.2901 -0.6799,158.8183 1.334,238.2187 2.6731,21.699 0.6096,43.8603 4.8438,65.3828 1.6887,22.3522 27.3523,26.8107 45.5312,24.1348 18.445,0.5303 48.3682,-10.3706 56.7344,12.709 2.2719,17.7912 8.5952,-1.3872 11.5059,-7.5742 8.7459,17.5968 29.5214,-20.3466 39.1211,1.9043 4.3037,25.3684 8.113,-18.6194 23.7089,-10.3399 18.1414,-7.4087 41.1534,-2.9989 50.1524,11.0645 10.7389,-14.4152 13.4523,14.4537 19.5859,5.5859 11.7912,-14.7061 41.4016,15.5901 37.5528,33.3574 0.3919,8.1688 2.255,0.3601 2.8359,-2.0547 1.0834,-15.0201 14.9136,-11.2511 13.7226,2.336 5.7504,-14.1426 19.7861,-26.2056 37.6973,-22.877 23.3361,6.0359 28.9167,-35.382 52.2129,-19.2988 6.4845,17.1478 13.4288,-9.2511 27.2695,-7.084 14.4291,-8.5025 16.8828,22.0896 23.8985,9.0254 6.7251,-16.0661 28.8161,-7.6497 42.9258,-10.8398 30.2443,-2.3014 64.1728,5.9618 90.6796,-12.9043 18.1171,-11.3263 14.2408,-34.3753 13.0332,-52.4922 -0.958,-22.8515 -7.7418,-44.5328 -16.9648,-65.2832 0.4792,-14.979 -7.104,-30.0938 -5.0977,-44.8047 9.7376,-2.2594 20.8625,-28.5756 4.8653,-24.6328 -18.9325,10.7456 -1.9066,-13.5559 -3.5899,-21.3028 9.3718,3.5641 13.9401,-18.1501 -0.1738,-12.7382 -15.4884,10.0072 -7.3685,-6.3986 -11.459,-15.2911 -5.309,-19.105 -27.1986,-21.8075 -43.8887,-23.4414 -35.2876,-0.896 -70.3842,-7.5295 -105.7363,-5.6015 -28.6063,2e-4 -57.3373,1.0277 -85.7617,4.9941 -22.6395,4.782 -45.1569,-2.906 -67.918,-3.1758 -19.1133,-3.3446 -38.4313,2.6635 -57.1406,1.918 -20.5733,-7.3449 -9.873,-32.2629 -10.418,-48.3066 -5.1837,-26.3798 -3.8665,-53.5897 -9.0586,-79.9747 -7.1881,-19.421 0.2087,-39.4544 4.4961,-58.5507 9.9878,-15.0083 -13.7557,-32.509 -2.4609,-42.6035 -2.7878,-9.1398 -9.4877,-34.1123 -1.1309,-49.5 5.6219,-22.8305 6.1261,-47.4373 7.2403,-70.2989 -25.6713,-7.6271 -14.5261,-33.5871 -15.916,-53.4043 -0.1227,-17.7471 -28.673,-44.2348 0.8496,-52.7773 23.5672,-0.162 52.0236,-5.3043 72.2343,9.8652 9.1706,27.5062 17.4125,-14.5654 34.0586,-11.9765 11.3686,17.9724 26.9101,-12.8825 39.7657,1.8535 13.2954,22.6065 0.4615,49.0687 5.625,73.2031 6.3235,-6.7432 4.7549,-34.774 6.2089,-49.8652 -2.6747,-28.4121 36.5581,-43.901 55.8047,-24.7832 3.8234,19.3654 9.1581,-9.3542 18.6621,-9.1153 22.1356,2.9292 49.6738,-7.6766 54.5684,-31.6758 -0.4021,-38.10454 2.4257,-76.23838 5.7383,-114.21871 0.05,-15.40271 4.9259,-31.49876 0.8789,-46.39062 -10.1542,-14.98326 -39.141,-20.33734 -32.0215,-43.66602 1.0584,-17.43251 9.0015,-41.11392 -8.6934,-52.85351 -33.8275,-17.80299 -72.2971,-7.11688 -108.4062,-7.22266 -26.2466,-2.8737 -52.6645,-5.75714 -79.1836,-4.28516 -18.4775,-1.57651 -38.3778,10.21656 -55.3262,-0.60156 -14.7118,-15.07554 -5.4994,-39.60146 -7.1933,-58.88867 9.7529,-14.63262 -7.2109,-20.38226 -3.625,-35.28516 9.8903,-20.89604 9.5368,-43.78986 7.4258,-66.35547 4.1896,-23.8722 -1.267,-49.52175 4.9687,-72.48828 -13.6595,-1.78807 -11.4696,-26.65522 -6.4941,-39.6289 10.7234,-21.11454 -1.2062,-41.84927 -2.377,-63.29493 -3.078,-27.30015 22.9468,-25.6719 41.543,-23.4375 19.2014,-7.31654 37.6438,4.68528 57.2656,0.23633 19.6569,-4.70524 53.9654,-11.05265 62.1719,13.89844 2.0772,20.21223 6.211,-4.20783 12.5996,-8.45508 15.2866,2.7279 32.1624,6.26942 48.4609,3.20117 31.9607,-1.38999 64.0183,-1.78241 95.9883,-3.88867 22.8629,3.6529 41.0438,-8.25042 53.9941,-26.4082 18.9288,-6.69691 41.493,-16.00562 40.0372,-40.89844 1.8215,-50.34434 -5.7327,-100.775 -1.0762,-151.11914 3.708,-19.82145 6.4422,-46.10493 -12.416,-59.37695 -21.3371,-0.67983 -16.9597,-21.08048 -21.4551,-34.869143 -13.7254,0.740051 -3.6578,-13.254881 -15.9824,-15.417969 -18.2885,8.051011 -28.9302,-8.011423 -47.7696,-6.451171 -19.1139,5.935536 -34.1367,-1.879855 -53.3418,-0.527344 -18.781,-10.042911 -41.2612,-5.460223 -61.7793,-4.806641 -21.5015,-0.161867 -43.0486,-2.521497 -64.5957,-0.328125 -28.9939,3.841552 -56.9861,-6.084635 -85.3925,-9.958984 -27.2538,-2.019547 -54.772,-5.377989 -82.1016,-2.847656 z M 269.79429,59.220105 c -16.20975,0.105984 -32.47886,1.291692 -48.53125,2.089843 -25.66235,0.914838 -50.7015,6.19446 -76.16211,8.119141 -29.06039,-3.761804 -33.62238,24.16673 -36.25,45.998051 -14.094349,44.78371 -7.60737,92.11603 -7.60937,138.1875 1.91323,36.10209 -1.956923,72.26571 0.56445,108.33398 3.1574,17.31756 6.03273,34.4574 1.4336,51.86914 -4.288311,30.44177 -15.556713,60.54026 -10.173833,91.62695 4.036665,21.857 3.988475,43.93606 4.988281,66.06055 1.010638,30.34183 7.123582,61.4614 0.429688,91.38086 -2.914099,29.47301 12.021674,57.87717 32.734374,77.96289 11.55284,22.15962 37.71802,37.42536 39.7168,63.73242 -7.43025,24.01936 42.47048,8.03717 38.46875,34.97852 -11.37578,4.4417 -13.21675,20.18557 -0.41992,27.58203 15.58231,12.75636 46.55917,1.36974 53.52539,24.81445 -12.0438,-11.77801 -2.43077,6.48525 1.93554,15.1836 7.86472,21.0249 24.48049,35.91107 48.29297,31.17382 25.59389,7.2798 17.82234,41.86972 28.70313,61.00782 2.78576,14.09613 8.663,5.51733 18.15429,7.49803 26.12661,7.6803 33.39347,33.3447 44.53711,54.6992 23.69706,6.5827 46.07246,25.2343 50.94141,51.3067 6.65831,33.6328 13.5758,67.337 15.30273,101.6777 6.56058,113.3356 0.0877,227.166 11.23047,340.2969 13.85527,22.4672 -10.59315,41.5897 -32.36133,35.0976 -47.94798,4.2704 -95.85736,-1.7049 -143.79101,-2.1152 -21.16929,1.2757 -38.37182,-11.5836 -56.69727,-18.8203 -15.65511,-3.0353 -40.40702,4.9425 -46.46679,-15.2363 -3.40289,-78.6094 -2.16885,-157.4494 -0.20118,-236.1211 -1.45372,-29.3609 5.78367,-58.3541 4.07813,-87.6719 -0.16237,-25.8277 -31.21943,-28.7088 -50.83203,-28.1484 -24.58623,-4.0571 -49.28519,1.1876 -73.685548,3.2949 -24.428406,-0.468 -45.196386,17.1936 -69.308594,15.6777 -3.3067551,13.4164 1.337313,31.0838 -8.6367189,44.7637 -11.0227783,47.5045 -4.37413667,96.7416 -3.90234378,144.9902 -1.09542252,24.1515 16.86752568,50.049 0.91015625,72.4317 -2.44068597,33.5228 0.27275638,67.1296 -0.7265625,100.6855 -3.46022847,29.2018 -1.52590347,58.5994 0.140625,87.8633 3.13906173,32.4755 -4.72135977,65.0119 -0.13085937,97.3574 -1.371505,22.3633 19.4101613,36.6184 40.3417973,32.7305 18.958093,8.6762 40.214029,2.9835 60.099608,6.4765 20.19511,7.6552 40.10352,18.408 62.68945,18.418 26.07599,5.817 52.66556,-0.5671 78.96094,1.6777 20.25739,-10.0229 54.32479,10.5089 36.22266,33.7286 l -0.70117,2.2558 c 11.41632,0.7521 6.52895,-37.2737 25.64648,-40.2539 17.78194,-12.6139 40.60855,-10.1428 61.10742,-8.793 22.38243,0.032 44.77264,1.3532 67.12696,-0.9121 18.56121,-3.708 37.33867,-1.7607 56.04882,-2.4668 8.45937,-15.6823 27.22516,-2.1846 41.15039,-5.0351 16.69399,-25.2476 43.47554,8.7867 31.75782,29.5332 -7.10926,20.9541 17.716,11.1682 15.28515,-3.6192 -13.25521,-19.8606 0.68459,-50.1044 27.25391,-42.8027 25.49997,9.3261 57.81254,-1.6644 69.7793,-26.668 10.2757,-31.444 13.07356,-64.9497 14.87695,-97.8593 3.40179,-95.1458 -9.68622,-189.8332 -10.03906,-284.9297 -0.0587,-90.4541 -4.14883,-180.9893 -15.00586,-270.8321 -1.95761,-27.4997 -8.87832,-54.4896 -22.05664,-78.8125 -11.85032,-20.3333 -17.42791,-43.78959 -31.57813,-62.80269 -12.03687,-18.91453 -31.88488,-31.20922 -43.37109,-50.33398 -7.26799,-18.48664 -22.80689,-29.41 -39.8086,-37.59766 -16.3313,-15.18288 -19.06527,-39.82945 -18.10351,-60.86718 1.77464,-29.50627 -33.74752,-40.1605 -56.97656,-32.17969 -29.48976,2.2201 -31.73725,-28.29486 -33.22657,-49.3457 -5.11568,-30.3909 -41.75128,-8.57724 -50.87695,-33.36719 -4.88231,-21.783 -22.2586,-30.03359 -42.70312,-30.71875 -27.43117,-2.65611 -14.08378,-29.73908 -19.94532,-46.87891 -3.67154,-64.30038 -4.95995,-128.7636 -4.51562,-193.1875 1.71215,-19.10947 -3.13732,-38.23017 -0.87891,-57.12305 11.15891,-26.08098 19.71691,8.31255 20.90235,20.99024 3.72621,5.67227 1.55095,32.26065 6.39453,27.5625 3.55319,-22.37319 7.61301,-50.72648 31.5332,-60.66992 14.50379,-7.32151 11.55002,7.38016 11.8125,15.89648 40.81642,-3.0688 81.91615,-1.54247 122.50586,3.57031 4.65046,34.1839 5.02243,68.80832 3.42187,103.22461 -4.15095,41.25492 -3.53893,82.79638 -5.0625,124.15039 -1.94615,15.25634 -7.83183,40.85077 13.49024,44.50977 28.48476,0.34336 56.79828,3.93155 85.1582,6.41602 33.09491,1.64973 71.69285,4.57538 98.08203,-19.47657 8.48054,-14.12604 2.97373,-34.40896 6.51172,-50.98828 6.63013,-63.93898 3.60204,-128.21417 2.3086,-192.31836 -2.36917,-46.45564 8.35876,-93.92196 -4.41016,-139.48633 -15.83936,-21.1043 8.94103,-51.9831 -10.63086,-69.72656 0.85296,-15.38493 -20.84608,-14.49285 -28.49219,-29.78906 -9.64493,-21.08861 11.05658,-53.62222 -16.02734,-67.154298 -29.8851,-10.503314 -62.14321,-2.593108 -92.85156,-7.830078 -29.18177,4.961953 -59.27898,10.800803 -88.54102,2.927734 C 429.37075,82.154814 403.52852,84.326176 378.05406,87.272839 354.26829,90.831242 339.1878,69.196907 317.96812,63.606823 302.15381,60.088295 286.00404,59.11412 269.79429,59.220105 Z M 5642.5384,72.474011 c -12.1329,-1.083884 -24.6758,-0.394502 -36.7734,0.376953 -22.3694,4.833306 -45.4681,4.906875 -67.8711,9.539063 -19.2822,2.998944 -31.5069,18.817383 -44.875,31.343753 -18.9213,14.39293 -25.9645,38.30154 -19.6211,61.01172 1.834,37.25528 13.9286,72.93998 17.4375,109.95117 -0.5191,20.65839 0.3287,41.37015 1.1484,62.05273 -1.4497,31.64851 -5.78,63.67428 0.6895,95.12305 -6.0538,23.44004 -7.7512,47.678 -9.8555,71.70898 -7.1116,46.53265 -8.4455,93.80182 -5.2636,140.75196 -2.1339,16.17777 3.3407,31.69537 8.7812,46.69726 9.3921,21.32629 -9.7808,41.44778 -0.709,63.17774 5.2931,15.03677 -1.6022,30.32707 0.6309,45.2207 9.3937,15.96139 30.8171,10.48345 46.1543,14.7207 13.5117,16.71791 41.2762,-3.82903 50.7558,16.39844 -0.1793,17.46357 -0.6571,34.92077 -0.9316,52.38281 1.4385,12.69967 -3.7285,35.89815 2.4297,41.69141 -0.3084,-21.17 -1.3007,-42.31031 0.4473,-63.41992 -4.9048,-11.7213 13.6304,-40.46686 20.9902,-20.15039 5.3177,28.55257 0.4752,58.07668 4.6328,86.84375 3.2993,17.42203 3.4799,-2.45637 2.5508,-9.25586 2.4277,-21.17971 -6.761,-42.9467 0.3008,-63.48243 21.5658,4.66658 8.0693,-22.91228 16.0156,-35.99218 22.8643,-6.90941 38.4815,-32.12504 34.3359,-55.67383 0.6137,-25.57617 -7.8264,-51.36908 -2.1933,-76.84375 -1.3607,-46.541 -2.1583,-93.09605 -3.3789,-139.64063 1.8247,-20.62571 1.8851,-43.09415 -13.1563,-59.54882 -4.916,-17.95221 28.4843,-39.09432 7.4336,-57.84961 -11.8405,-20.853 7.4868,-42.02082 5.7227,-63.63477 4.793,-16.75524 -3.9351,-35.59203 5.3652,-51.26172 19.1986,-18.42757 44.425,8.36498 42.2441,29.69531 0.848,23.51115 0.235,-7.20371 1.4278,-15.31054 -4.3368,-23.91578 29.0963,-30.68908 32.6465,-6.02149 1.0248,12.44968 -2.598,7.42956 0.6386,-1.39257 2.678,-26.23577 30.4947,-17.41388 48.5,-20.99219 31.4305,-2.66777 62.6582,-11.06559 94.3477,-8.65039 35.6464,8.62252 72.832,12.18154 109.3144,6.87695 21.3333,-12.70893 43.6733,8.77873 33.8282,31.28125 -0.5148,83.68247 -16.2317,166.47502 -16.1309,250.18359 3.1519,31.26387 -4.0486,62.27778 -3.0098,93.51758 6.1092,24.58502 -1.6034,49.57273 -0.1933,74.38672 8.349,15.04035 -0.1877,26.49863 -15.6875,30.96875 -2.6714,16.36 -12.4441,35.73862 -34.4199,32.63867 -31.7915,-11.66818 -28.0459,28.73068 -42.6973,44.13477 -24.1024,12.7039 -52.7248,2.60014 -78.1797,10.1875 -26.7981,3.84583 -30.6514,33.84385 -36.0176,55.20312 -10.4341,10.01738 -25.878,11.40608 -39.5742,9.77149 -19.0986,-5.36738 -35.4951,-3.70262 -47.9629,13.45703 -19.121,11.75549 -4.9061,39.878 -25.3008,50.01176 -25.6925,14.6129 -57.1338,-4.82419 -82.0879,12.1777 -28.9577,15.6654 -19.2838,55.6135 -42.5722,75.4844 -17.8387,15.2843 -43.2665,15.5625 -61.4356,29.9218 -13.7181,21.0656 -16.6953,48.5205 -29.9609,70.5801 -8.3929,24.8525 -36.2071,43.6405 -30.7559,72.4102 -5.5843,19.3531 -8.3013,39.3615 -11.0468,59.2695 -2.8373,30.1137 -14.1641,59.4229 -9.7403,90.002 -2.4358,26.7285 -4.1995,54.0921 -11.6855,80.0879 -4.1773,36.1194 0.528,72.9736 -4.1504,109.1972 -0.7142,49.4722 -0.5907,99.1842 3.918,148.5332 5.4171,23.6399 15.3437,51.0924 39.6718,60.9942 33.4251,5.7934 67.7937,2.6441 101.4668,0.1269 28.2817,-4.1262 56.905,-5.4793 85.4629,-3.625 23.6364,-4.3994 47.9069,-3.8648 71.9199,-3.6426 23.948,2.1799 47.5363,-10.9921 71.0703,-3.8359 21.3814,14.5488 49.9791,7.1837 74.1934,14.9687 27.9322,11.8583 58.5511,7.0636 87.9004,6.1465 25.5291,-10.086 52.0095,2.839 75.3809,12.7539 27.6931,1.6728 55.0396,6.5623 82.5156,10.1543 25.8035,0.8898 51.7246,1.1847 77.4297,-1.625 19.1713,0.5735 33.7659,-12.9625 47.166,-24.8691 17.2527,-7.2482 44.1354,-31.0154 19.6914,-46.752 -25.3799,3.4788 -35.4359,-23.3783 -32.0156,-44.6836 -6.4906,-101.0604 -8.8097,-202.3664 -9.6348,-303.6308 -2.2546,-28.0514 2.3416,-56.379 -2.1875,-84.2617 -7.5166,-18.7574 -5.2133,-39.3827 -1.2051,-58.6797 4.4264,-18.0506 5.5263,-36.7572 -0.5918,-54.6074 -2.9325,-24.9873 1.1523,-50.5191 -3.4433,-75.5567 -6.5358,-23.7054 -1.2442,-47.8692 0.1621,-71.8633 -3.7368,-24.39 -14.6615,-47.4669 -16.9688,-72.2812 -4.1049,-19.80078 4.7056,-38.34218 8.8067,-57.21876 0.5515,-55.75847 3.7552,-112.00885 -3.5801,-167.56445 0.9849,-24.15243 -6.2875,-48.1752 -2.9277,-72.31836 -1.3174,-21.00333 -1.2782,-42.32113 0.582,-63.4043 4.1008,-48.25748 5.7812,-96.66507 8.4433,-145.01563 -0.4107,-16.27497 7.3162,-31.45197 4.4864,-47.84765 -5.2775,-26.61959 7.9622,-52.02265 6.8105,-78.5 -9.016,-38.0468 -16.3343,-77.98322 -8.0371,-116.96094 -3.1439,-17.90654 -3.6818,-36.12453 -4.2344,-54.25586 1.6737,-18.48044 -7.8782,-34.90249 -4.6621,-53.46484 4.3285,-33.22858 -37.1479,-26.08493 -58.1289,-27.1543 -25.3264,0.68768 -41.7962,-25.409762 -67.5312,-23.79883 -18.0384,3.86578 -36.8913,1.78658 -53.5293,-6.341794 -17.1877,-10.467511 -36.5815,-11.630679 -56.2227,-12.650391 -28.7593,-5.032597 -56.637,6.128617 -85.373,4.738282 -20.2458,-6.854063 -42.9022,-4.949217 -63.2383,-12.41211 -22.1495,1.352173 -43.4116,9.027974 -65.6231,9.832031 -17.9831,-6.287245 -36.7,0.652231 -55.164,-0.476562 -10.4561,-6.324871 -22.1777,-9.181741 -34.3106,-10.265625 z m -879.3808,3.447266 c -19.2348,1.028435 -38.525,3.454052 -57.6309,4.134765 -19.4087,-8.138935 -15.9134,16.424923 -26.7051,23.281248 -23.0847,-0.0284 -46.9753,-0.56574 -69.1113,7.43555 -24.8009,5.53927 -25.8237,35.44971 -22.1875,55.72266 -0.833,33.67315 16.8066,64.92414 14.4668,98.66406 -6.4606,21.71735 -0.1182,44.04495 0.5449,66.04687 -3.8181,23.12586 -4.12,46.56884 -1.6953,70.00391 -2.1573,17.88095 -0.4277,35.91977 2.6973,53.61914 5.8174,25.03825 -1.9976,49.95296 -4.3067,74.875 -2.9191,40.81523 -2.233,81.90196 -0.8789,122.7832 3.6987,24.03792 -0.7421,48.08758 1.7598,72.19141 5.9554,30.43809 7.3554,61.44315 6.3691,92.4043 0.6247,25.82718 1.6669,51.72239 -3.416,77.24804 -1.5068,34.22986 -7.165,68.09157 -10.7324,102.14453 -4.8424,18.07024 -2.4136,36.86834 0.6543,55.04294 4.6931,20.8374 0.5221,41.6231 -0.8984,62.4239 0.8579,-1.188 2.0834,-1.5378 3.8164,2.2714 -1.9519,2.4785 -3.2394,3.0111 -4,2.5977 -0.1812,5.5879 -1.5054,11.1702 -0.6328,16.7637 8.6761,20.249 8.1104,42.1599 3.496,63.4765 1.1642,29.7116 -6.7775,60.0679 1.2442,89.4082 -6.4908,31.1215 -2.8913,63.0324 -3.709,94.5332 -4.9495,25.7297 2.3323,51.3983 3.4004,77.1055 -7.9945,21.1008 -3.5413,43.8782 -3.5273,65.7754 -2.8452,21.9149 4.3266,43.3147 4.0761,65.1406 -5.0294,21.2516 -0.7624,42.8739 2.127,64.2871 0.9623,26.4804 17.5178,53.6275 5.0469,79.5235 2.9856,22.2518 4.1423,44.77 3.0722,67.2031 -5.5105,27.327 28.9317,24.9823 46.5879,27.0137 20.3476,-1.6873 52.4831,-9.4194 58.5078,17.9082 14.7908,15.7703 38.6262,4.7098 56.711,12.5976 5.2853,1.9725 11.0099,2.4507 16.6054,2.0918 15.8235,-2.5395 31.5257,-4.7498 47.5957,-3.9004 33.0099,0.017 62.9161,-15.8256 95.2637,-19.7714 29.391,-2.1821 58.7448,-7.6294 88.3105,-5.7989 36.5927,6.0988 73.7561,7.3555 110.8008,6.0977 26.5961,-2.2906 58.5305,5.9332 79.8321,-14.5996 12.5143,-15.4502 1.6508,-36.5622 8.3867,-54.3086 9.3225,-28.1739 2.9204,-58.0671 7.3301,-86.877 5.276,-16.0483 18.5266,-46.3396 -8.1973,-50.2051 -27.9205,4.334 -26.4718,-31.0756 -41.8555,-44.6328 -26.6261,-8.6876 -55.0269,-6.0859 -82.4863,-4.4043 -24.2394,5.6884 -45.1913,-11.2935 -68.3887,-14.2402 -31.8867,1.3744 -63.5283,8.5719 -95.623,6.8945 -26.3845,-3.3768 -52.8553,-3.7879 -78.8946,2.1856 -22.0287,-3.2267 -47.496,17.6305 -66.1308,2.1719 -8.3384,-17.9171 -14.9191,-38.227 -13.6699,-58.5704 3.736,-19.9868 6.6194,-40.0827 7.2441,-60.4765 8.0771,-35.5904 3.5729,-72.1812 4.3477,-108.2774 5.3577,-55.4964 4.1808,-111.3045 4.0039,-166.9843 -1.758,-24.9222 2.9607,-50.5183 -3.7071,-74.9297 -14.5706,-19.4469 -1.988,-40.4518 4.2891,-60.211 -2.393,-23.6634 2.7279,-47.5642 -0.074,-71.25192 -7.3637,-24.93042 0.8119,-50.72272 2.6054,-75.92187 0.2248,-23.56704 2.1373,-47.02174 6.627,-70.22266 1.9703,-29.88335 0.6608,-60.10739 -2.0176,-89.96094 -7.4709,-28.10957 -3.0995,-57.27262 -3.3926,-85.91211 -4.3212,-30.6531 -3.3383,-61.7451 -0.207,-92.49609 -2.6467,-23.73396 3.9571,-47.00397 7.7051,-70.26367 3.7625,-16.43341 -5.2892,-34.48131 6.0215,-49.37695 10.234,-18.0886 31.6477,-12.19407 48.4258,-14.03711 20.7636,-1.13068 40.0957,-9.49874 60.1015,-13.78711 45.4272,-4.60985 90.5236,4.59209 135.6992,7.98828 24.5495,0.1865 49.443,-1.56803 73.6036,-6.39063 16.9542,-7.60267 42.0444,-0.75982 52.9746,-18.53515 6.6391,-15.58081 23.6478,-31.34912 10.5918,-48.75 -6.0765,-19.40686 -30.7921,-49.85459 -3.9961,-63.20508 -5.2026,-16.81414 1.2564,-36.12808 1.0722,-54.12695 5.0211,-29.12677 -1.3104,-59.41786 7.5293,-87.95118 4.8337,-16.61012 8.6414,-40.32355 -9.7187,-50.24023 -28.7702,-10.245477 -59.8709,-12.344929 -90.1778,-14.652344 -33.0771,-4.033852 -66.4224,-6.215799 -99.7851,-5.048828 -26.8986,-2.766754 -53.2921,3.844156 -79.7402,7.628906 -28.9038,1.407556 -57.7138,-6.219057 -86.7559,-4.117187 -18.8816,-4.90854 -38.0601,-5.278436 -57.2949,-4.25 z M 4591.9037,1118.8119 c 0.053,-1.623 0.073,-3.2464 0.1836,-4.8691 -1.0239,1.4177 -1.4209,4.1966 -0.1836,4.8691 z M 4023.5345,79.442761 c -5.5841,-0.347255 -11.2383,0.22874 -16.9961,2.296875 -20.8079,-2.968139 -41.8745,-1.722743 -62.8066,-1.503906 -29.22,-2.732538 -55.8756,18.4669 -85.3496,11.634765 -23.9665,-0.560943 -50.2736,1.824025 -70.3731,16.384765 -5.547,23.18212 -13.2168,45.95652 -16.0019,69.7207 3.9189,31.12688 -10.5119,60.29672 -13.6465,90.7793 1.6487,34.46912 2.8155,69.13464 1.4258,103.71289 1.2609,23.00225 -3.2005,45.75406 -2.5801,68.66602 9.4949,24.22193 -6.7252,50.03956 3.2441,73.89843 -0.9728,20.38643 -2.1327,40.76518 -3.1679,61.14844 -3.5968,52.83119 -2.3127,105.75961 -1.9551,158.65821 0.7908,42.66462 -2.9445,85.21166 -3.2266,127.83593 1.5241,22.95783 -4.5443,45.54836 -2.9277,68.42774 2.5928,23.0602 3.8689,46.40282 9.3574,68.91408 1.3842,23.3509 6.2525,48.1541 26.8594,62.1289 28.8058,31.1776 34.9824,75.4215 33.8223,116.2539 1.3161,32.4527 -2.0025,65.0968 1.8964,97.4141 4.4836,-38.2902 3.8648,-76.922 3.9707,-115.4043 -0.2213,-19.5181 4.4352,-45.0789 25.5176,-52.045 22.8739,-1.0313 16.0629,30.2675 16.3321,45.2227 -2.0775,14.633 4.8963,11.8938 5.0078,-0.4043 4.2683,-14.303 -9.8738,-42.9356 7.8125,-47.8789 4.76,-12.0724 27.2103,-9.5787 27.3183,9.4766 1.5107,20.0938 4.4246,-11.1676 4.4766,-17.2481 12.7707,-14.7965 32.9329,14.5809 47.0605,20.7188 23.072,-1.4385 20.0906,24.2508 18.7481,40.1113 11.2231,-6.9599 -0.4514,-43.7961 14.0058,-58.6797 17.1125,-12.8968 55.7405,-13.8909 54.502,15.0586 2.8969,-13.6465 12.8415,-33.8608 29.1445,-21.0527 7.8309,-15.2606 17.7631,-3.0062 23.1328,1.6035 4.3112,-29.342 35.8392,-6.2283 29.2715,14.1445 2.1833,-22.5981 29.4974,-34.0899 48.6582,-23.6738 16.9808,1.9207 39.7632,-6.1153 50.6211,11.5996 -0.097,23.0424 0.1131,46.104 1.6426,69.1035 2.9191,102.3004 0.315,204.7145 2.9805,307.0391 -2.2871,19.2718 5.7117,38.0173 2.4297,56.3808 -11.8967,24.0863 -40.2561,6.4637 -60.5723,11.5664 -24.7461,-1.7298 -47.9928,10.8525 -72.8106,6.3145 -25.8059,-5.2082 -52.3142,-4.8316 -78.5625,-4.4668 -18.7213,-0.3792 -36.5676,4.8705 -54.3125,10.1074 -18.8093,-4.411 -33.992,12.1638 -52.3945,9.3731 -14.9464,3.9431 -30.3998,5.4088 -45.7832,6.3925 -27.7125,-0.087 -54.767,6.6527 -80.3633,16.9414 -25.4355,4.9262 -17.5906,39.1454 -8.0273,55.5782 -7.9706,42.5444 -11.1244,85.8666 -10.334,129.125 -6.285,22.7877 11.9023,44.9406 35.8008,41.9336 24.0914,13.7225 52.8084,6.1198 78.7168,12.2578 22.7025,-0.9195 45.2598,-5.6705 68.0937,-5.2051 41.3322,3.6633 82.9914,-2.1241 124.1797,3.5449 36.2887,6.491 72.9372,0.065 108.3457,-8.1914 22.3053,-6.6767 45.5037,-0.8606 68.3281,-2.8105 32.1796,-2.6304 68.7161,-2.768 92.9532,-27.459 18.6435,-19.9181 50.0955,-2.6281 70.084,-19.8184 17.8244,-16.4026 6.8625,-41.8145 10.2793,-62.5488 -3.4317,-45.3227 -4.2568,-90.7913 -4.6309,-136.2266 -1.9352,-85.9766 -2.8021,-171.9824 -4.6484,-257.9648 -3.6345,-93.268 -5.2569,-186.599 -8.8223,-279.8731 0.647,-47.59776 -6.4511,-94.99473 -4.541,-142.59567 0.3734,-21.13792 11.0449,-47.93271 -8.3164,-63.9375 -25.4864,-10.63933 -53.7841,-7.49874 -80.4532,-4.36719 -23.6491,7.78472 -47.8299,-2.35485 -68.8574,-12.96094 -35.4064,-1.06889 -71.0217,5.68537 -106.2422,-0.32421 -19.8064,-6.45555 -40.8973,-7.95767 -61.5976,-5.98243 -27.676,4.18332 -55.6273,2.29518 -83.375,-0.0508 -19.005,0.72645 -51.0128,2.85394 -54.1133,-22.21679 5.2633,-58.39833 -8.1363,-116.57322 -3.4805,-174.94532 5.6822,-21.15758 -7.0359,-40.75551 -7.1914,-61.59375 3.7166,-18.42595 21.4578,-33.09116 10.9434,-53.67382 -7.0926,-19.72018 2.0708,-46.83224 26.2168,-46.66407 26.2032,-0.7147 48.7083,-18.27543 75.2324,-17.17578 21.0483,4.15878 42.0133,6.80717 63.7852,6.06836 65.3843,1.0742 130.8189,1.49802 196.1894,-0.0273 17.5251,-2.88234 39.2507,2.09648 52.6152,-12.5 19.302,-18.87457 -4.5504,-34.63435 -18.5429,-44.64258 -7.5281,-20.26011 -1.9947,-43.0338 -3.6289,-64.37305 1.5679,-38.39476 4.0311,-76.74153 4.3554,-115.19531 -0.646,-28.14853 1.604,-57.19735 -6.6386,-84.52148 -18.1358,-11.730206 -44.3728,-12.493767 -66.4883,-14.128911 -39.2854,-2.569847 -78.7123,11.124241 -117.707,2.855469 -23.8718,-10.400687 -49.6912,-2.946725 -74.5508,-3.357422 -16.4598,-2.309783 -32.5876,-11.66136 -49.3399,-12.703125 z m 2633.877,16.074219 c -23.02,1.064349 -46.084,2.197335 -69.2266,0.703125 -23.409,3.067738 -47.0414,2.5797 -70.6113,3.08789 -27.1014,3.064765 -54.1157,8.099915 -80.6758,14.410155 -26.8411,-0.32669 -33.1256,25.97793 -25.9297,47.875 -5.0458,17.5594 -7.2731,37.53356 5.7383,53.55469 13.0665,15.53267 8.3823,35.65946 5.4785,53.89258 -3.877,59.34227 -1.4628,118.94707 -0.7363,178.38281 -1.4472,57.35507 1.1619,114.68556 2.7266,172.01367 -2.4709,36.24789 4.5545,72.17083 4.7832,108.35938 -3.8949,23.82993 3.946,46.91879 3.3222,70.86328 -1.6348,20.17489 4.0875,44.83962 -11.9629,60.59179 -3.3278,36.07368 0.9935,72.19965 2.8301,108.22461 8.3798,-12.47301 -1.8538,-33.96966 7.3594,-43.95898 7.001,16.89755 0.6657,35.59183 1.4551,53.2832 -0.5096,43.26422 -1.7453,86.60032 1.8535,129.78512 6.1266,56.16 6.0862,112.6647 7.4648,169.0684 -0.4458,46.8799 10.0297,93.8764 2.2246,140.5625 3.768,23.6045 3.3568,47.9885 -2.2207,71.2773 5.8365,59.5279 -3.7968,119.0503 -3.2578,178.6172 6.4483,22.3363 -13.8073,37.5311 -20.6738,55.8946 -10.1706,20.093 -27.6727,38.7909 -23.9766,63.0976 -0.6196,30.3971 35.7238,24.7864 56.0156,29.3711 25.8061,2.2857 51.6824,5.0871 77.5079,5.5723 22.8431,-15.8496 28.7865,17.4913 33,34.3437 7.3699,19.1706 5.6282,-10.8329 3.291,-17.7343 8.8441,-1.4433 8.1408,31.801 11.7051,44.5507 20.2194,7.1453 8.6283,-21.7318 14.7246,-30.8632 19.1357,0.2264 7.0543,-22.6308 16.2929,-32.4122 22.5244,-10.165 47.9895,-9.5841 72.0782,-11.4746 27.5781,-0.1718 37.2725,-32.4999 32.8027,-55.1289 -6.4046,-22.921 -27.1234,-39.7433 -27.8809,-64.7636 -1.245,-25.0114 -24.378,-39.1034 -29.7519,-62.6719 -17.7775,-14.9435 -14.2914,-36.2994 -13.6504,-58.1641 0.4172,-38.3848 3.8326,-76.6225 5.332,-114.9375 2.9756,-17.9521 -11.7304,-50.3285 13.6211,-55.873 48.9355,-1.5094 98.4027,0.6643 146.6836,-8.9903 22.8727,-6.9006 46.2939,-10.9462 70.291,-11.373 18.0331,0.2393 32.5061,-10.9438 47.6758,-18.9043 21.8732,-7.3583 47.5841,-0.5186 67.502,-16.1367 20.4684,-10.5984 9.8525,-47.1282 38.1425,-48.7891 18.9558,1.9025 39.0685,-1.7086 54.5743,-13.334 21.0728,-13.9986 20.6356,-41.3805 27.6543,-63.0586 2.8271,-28.7518 31.1252,-35.1036 50.9433,-48.498 13.6051,-18.1557 10.6093,-43.4783 15.9961,-64.877 -2.0966,-22.3778 9.3219,-45.2828 31.1406,-53.2617 0.8713,-22.748 -7.2503,-44.3871 -11.7578,-66.36717 -9.5721,-26.20894 8.4606,-51.11905 7.584,-77.25391 -5.5267,-22.04002 -9.6099,-44.63998 -10.2148,-67.46289 -4.8811,-23.89973 0.6158,-47.55587 3.5097,-71.38086 3.1555,-24.11973 -2.2837,-49.60689 -17.5371,-68.93164 -6.3277,-21.91214 -5.4415,-46.1372 -6.8203,-69.08203 -4.6382,-21.06881 0.4202,-46.06909 -9.5391,-64.64649 -20.7412,-3.83557 -25.4118,-22.37316 -38.8398,-34.75976 11.9853,-18.65614 5.2205,-43.70333 5.0918,-65.18164 -0.4853,-19.94095 5.3101,-45.66861 -13.3496,-59.3125 -19.7758,-3.66876 -44.0196,-7.5076 -47.502,-32.52539 0.3778,-22.45013 -11.2167,-42.32616 -19.7109,-62.98242 -12.3892,-18.25838 4.9667,-44.65214 -12.6621,-60.34961 -15.2992,-6.81118 -32.56,-8.35436 -49.1211,-10.05664 -16.2727,-2.99623 -34.4025,3.79607 -49.1055,-5.28321 -21.5035,-14.95878 -5.7792,-41.06249 -12.4629,-61.31445 -1.0191,-16.14132 -16.8488,-10.52803 -24.082,-16.69727 -18.171,-12.50369 -40.5641,-2.3892 -60.3281,-3.83984 -18.3957,-7.7969 -14.9242,-32.4528 -28.2305,-45.02734 -30.1414,-8.467734 -61.6571,-3.71328 -92.457,-4.98438 -21.5263,2.30194 -42.7572,-3.006473 -64.1211,-4.73828 z m -5585.6055,7.15625 c -23.9375,-1.66066 -47.8306,-1.28568 -71.6387,1.50977 -30.969,-1.67977 -61.53008,3.39751 -91.84566,9.05664 -15.64723,4.34514 -33.27748,4.37345 -47.11914,13.00781 -15.3923,16.57686 0.18629,39.94301 -8.23633,58.20508 -8.47001,24.9964 20.24831,39.88298 19.13867,62.82031 -4.38281,18.12543 -6.55951,36.46844 -5.84375,55.14648 -1.87204,61.24272 0.53566,122.47261 0.40625,183.71485 -1.05301,52.3901 2.91595,104.67171 2.87695,157.04101 -1.21684,31.7932 5.88836,63.09724 4.35938,94.8711 -2.03979,26.87719 5.32658,53.23782 3.61914,80.1289 1.0629,19.77024 -3.3018,36.88882 -13.36328,52.97852 0.88432,22.47502 0.52278,45.27805 2.14453,67.8789 1.80385,7.47309 -0.60685,37.98622 4.66601,29.15821 3.19365,-9.05091 -3.4718,-41.98831 6.35157,-36.19727 4.37568,17.3093 -0.61699,35.1938 -0.11328,52.80078 -0.41312,45.28868 -1.56615,90.67328 2.57226,135.85938 5.85161,52.833 5.30031,106.0182 6.80274,159.082 -0.15572,40.4992 6.89777,80.7645 4.66796,121.2578 -2.77072,14.8542 -1.5439,29.4084 -0.0762,44.3204 2.06805,20.9289 -5.51776,41.2262 -3.63281,62.0253 4.05419,57.4039 -6.1777,114.7252 -3.60156,172.0508 1.04979,23.8878 -21.80194,37.7043 -28.03321,59.0567 -12.88651,17.9663 -21.71248,41.1687 -16.10351,62.959 14.85014,22.8626 46.35575,13.962 69.24805,20.3339 21.81177,-0.807 43.34426,5.7629 64.9746,3.3809 21.34071,-16.9247 26.64342,19.1392 31.20122,34.4492 7.2793,19.4616 5.6957,-10.6056 3.3008,-17.582 8.8342,-1.4442 8.1376,31.8013 11.6992,44.5508 8.0052,4.7424 13.5429,-2.0186 12.7285,-9.7657 -1.9741,-13.5276 0.8641,-23.4719 13.3359,-27.3261 -4.8813,-22.2474 15.6905,-36.6526 36.6758,-34.6524 21.5757,-2.4035 46.8492,1.4761 64.3301,-14.1269 13.7628,-17.2416 10.76,-42.6366 2.041,-61.5586 -11.3739,-16.9528 -21.6993,-34.4613 -22.7344,-55.6114 -7.7967,-24.041 -26.5154,-42.9701 -36.0254,-66.6484 -12.4547,-18.1144 -3.0492,-42.6082 -5.3281,-63.623 -0.2377,-37.5938 6.5474,-74.8413 4.3867,-112.4551 1.3987,-14.1098 -7.4568,-37.8595 13.2774,-40.6719 34.1769,-0.3834 68.5329,0.025 102.6699,-2.9648 28.1675,-0.6433 55.1023,-8.9932 82.502,-14.4356 23.0112,-1.4315 46.7814,-3.1718 67.6718,-14.0918 18.6341,-13.7835 42.7406,-9.6756 63.9317,-15.8125 23.4598,-4.7777 33.3303,-27.6999 37.4043,-48.7969 19.3454,-13.669 45.6727,-3.2956 65.4961,-15.914 25.6442,-14.8272 27.2455,-46.7383 35.0371,-72.1074 1.7077,-26.9703 31.1812,-30.7056 48.6582,-44.0157 13.3832,-19.5135 13.8369,-44.0063 16.1836,-66.6972 -1.6984,-22.5107 11.4483,-43.1916 31.7226,-52.7188 1.148,-22.2739 -6.6346,-43.5449 -11.3203,-64.99802 -9.2956,-23.40881 4.0549,-45.86205 7.6211,-68.71485 -2.9541,-26.93547 -11.5419,-53.59148 -10.2969,-81.07812 -6.8583,-21.26538 2.0256,-42.91628 2.8653,-64.33789 3.7111,-25.02874 -0.3039,-53.02572 -18.75,-71.75586 -2.482,-18.57972 -3.6411,-37.3003 -4.7188,-56.00391 -1.7781,-21.6059 -2.9064,-43.23867 -5.2578,-64.76562 0.1844,-22.00532 -23.583,-13.69026 -30.2324,-30.30274 -14.2356,-12.47256 -9.2037,-26.09841 -5.9649,-42.68359 -2.3925,-27.66097 -0.9127,-55.61364 -3.8398,-83.26563 -3.705,-21.62208 -30.0233,-15.82877 -44.5625,-24.5 -19.3609,-14.03137 -13.6287,-41.26194 -22.5254,-60.80273 -14.3998,-20.6261 -16.6508,-46.28168 -18.0391,-70.63672 -0.5694,-25.9232 -35.0315,-22.6235 -53.4628,-25.03906 -20.6617,-2.79417 -50.2853,4.68782 -61.5137,-18.47656 -5.6565,-19.76728 6.8354,-44.47315 -9.4043,-60.84961 -20.6419,-7.51861 -42.6989,-14.51434 -65.7852,-9.83008 -28.4951,8.63078 -24.6961,-27.22905 -37.5664,-41.27735 -17.9954,-8.76863 -39.1541,-7.65039 -58.7832,-7.79101 -26.2154,-0.32518 -52.5681,2.61237 -78.5351,-2.1211 -17.3277,-3.675349 -34.9689,-2.61903 -52.3145,-0.64062 z m 2317.8438,247.32422 c 9.3703,1.00689 15.8638,5.8982 11.2421,18.85351 1.6716,41.21651 0.9467,82.47473 0.8204,123.71094 -0.8987,37.45087 1.4768,74.81696 2.5703,112.22461 -3.1978,23.77348 2.5585,46.84107 6.7011,70.08594 -1.6991,23.91425 -6.2367,47.69274 -1.0878,71.98437 -3.7033,22.45403 -5.4108,45.39582 -4.1954,68.24219 1.9695,29.30171 -0.2241,58.54807 -1.0839,87.82422 3.4324,34.34908 0.7692,68.93111 1.3183,103.42387 0.9364,32.5199 2.625,65.0067 2.1387,97.5644 4.0493,30.2876 4.9456,60.9201 5.3867,91.4785 -0.1781,75.2995 -2.0471,150.6235 -4.2187,225.9004 0.314,31.4514 0.4476,62.9849 -1.459,94.4395 8.6738,31.0566 5.4138,63.6236 4.4707,95.3789 1.3991,20.0173 -19.0073,28.8228 -30.4668,11.2519 -19.4013,-14.2049 -46.5944,-9.3582 -69.9375,-9.5 -29.2078,4.9414 -59.2397,4.5703 -88.0176,11.8282 -19.3724,14.0403 -44.2599,8.4694 -66.4824,9.7441 -24.5822,5.8461 -49.5465,-6.6793 -74.4141,-2.8418 -27.6831,8.5592 -55.4681,-3.0567 -82.6055,-7.9512 -18.0204,-4.9324 -46.6285,6.8517 -54.9121,-16.0879 -0.2344,-41.6359 -0.08,-83.3012 2.2422,-124.8847 8.7341,-95.9275 -1.1568,-192.2359 2.1621,-288.3242 1.8518,-82.7623 -8.1994,-165.2812 -5.3359,-248.0313 4.623,-77.39691 -4.7528,-154.53563 -10.8086,-231.56445 -3.8846,-38.65216 -2.6268,-77.40414 -1.5195,-116.14453 -0.857,-20.47651 8.4315,-38.86984 15.2246,-57.57813 7.3391,-39.7734 5.9811,-80.64049 4.9355,-120.93164 4.9032,-15.65661 -16.025,-45.67931 7.2051,-50.00195 34.5877,9.21546 70.6382,5.11783 105.9102,4.16797 30.4922,2.77335 61.4332,4.15932 91.8554,-0.58594 31.3334,-9.21229 64.1678,2.67795 95.541,-4.80273 35.024,-11.33305 71.9682,-11.83371 108.3165,-14.42383 6.8851,-2.57867 19.1335,-5.45612 28.5039,-4.44922 z m 3379.5097,32.89258 c 17.4448,-3.17889 31.7104,8.70528 45.3887,17.4707 13.2208,10.54025 29.5344,4.7636 44.6328,5.0293 14.5291,-2.93419 42.7794,16.96687 30.3281,25.84179 7.3576,13.21345 -3.6181,20.34833 4.6895,32.62891 6.8953,22.52953 18.8299,46.38101 42.7148,54.81641 22.5589,2.52338 17.7329,29.0317 12.416,44.22461 -6.3145,18.93986 10.2003,34.78894 6.3946,54.08007 -6.7561,25.67844 26.7679,22.37178 26.7969,44.14258 -3.5299,9.09893 14.3833,38.78068 -2.4082,30.22656 2.4913,12.19805 8.5839,30.24989 7.8945,45.73438 11.8331,19.64404 1.0941,44.38198 12.0644,64.32617 5.1439,21.09508 6.7732,43.46221 8.9082,65.22656 -0.985,24.55814 -5.8833,48.97263 -1.6035,73.56641 2.9608,24.64684 -6.8374,48.26025 -5.5742,72.77542 9.1499,29.833 -24.9127,32.5388 -40.4473,48.416 -7.7105,17.3924 -2.8998,47.0745 -30.039,48.7148 -22.4635,0.059 -51.3161,5.8212 -62.543,27.9942 -15.0249,17.9499 -40.1531,5.3548 -59.5176,11.5234 -24.3224,11.1921 -53.0237,-5.7604 -76.3144,9.1016 -24.7835,-0.762 -49.6722,-3.1342 -74.4141,-0.3379 -8.1402,-0.8879 -10.4475,-10.3207 -11.9199,-16.9317 -4.5481,-54.3885 -15.8592,-108.2361 -16.3301,-162.97652 -1.766,-72.50585 2.9022,-144.94216 3.2695,-217.4336 -3.876,-68.77726 -7.176,-137.67101 -7.6777,-206.57617 0.8301,-22.18268 -9.0493,-43.13753 -3.0566,-65.38476 1.1361,-26.18867 7.5037,-52.26198 3.3203,-78.53711 -7.5724,-30.32457 30.336,-18.98972 47.1562,-19.31641 32.0877,-0.0859 63.7181,-8.3367 95.8711,-8.3457 z m -5557.2109,5.72656 c 27.0927,-5.72744 44.4753,23.21428 70.3613,24.08398 21.5239,-6.26436 54.0664,-2.23212 57.7305,24.99414 -3.4919,-1.28919 -8.3384,-1.30027 -2.5059,8.72657 -4.6934,11.49522 2.3998,25.77983 9.1485,38.92187 2.5528,20.75815 21.2823,33.10862 39.7949,38.83594 20.5931,7.48633 10.5138,31.21873 7.8808,46.79101 2.3371,23.88259 5.9889,48.57642 11.9219,72.10157 14.6878,3.3367 25.9007,19.95839 23.2071,37.74023 8.6817,22.86896 -2.2348,48.00124 6.1992,70.91797 8.0179,22.54443 2.6012,47.81744 13.3008,69.72852 0.9202,22.05147 7.3822,43.78497 4.7832,65.91796 -4.9588,21.8994 -1.3892,44.20179 -0.9766,66.36524 2.0865,22.16252 -7.4364,43.21219 -5.707,65.29691 7.6419,25.2556 -17.6503,32.5842 -35.0079,42.3261 -18.0115,13.1392 -2.5273,45.4583 -28.6699,52.4922 -22.556,2.3947 -49.3986,4.0682 -65.375,23.125 -11.3215,26.0155 -42.4923,11.832 -63.5371,18.0176 -24.2954,11.1359 -52.9621,-5.7978 -76.2226,9.0625 -24.7835,-0.762 -49.6742,-3.132 -74.4161,-0.3359 -8.1392,-0.8904 -10.4456,-10.3203 -11.9179,-16.9317 -5.2174,-60.1629 -17.9702,-119.7974 -16.3203,-180.46677 -1.8066,-65.51523 3.4266,-130.91804 3.3496,-196.41016 -3.6463,-66.98894 -6.5859,-134.05116 -7.8789,-201.14648 4.7115,-25.11536 -12.5828,-50.5188 -1.7383,-74.9336 -1.5195,-22.04347 4.1857,-43.80656 3.3808,-65.83984 -13.2514,-20.12945 8.3401,-43.08989 29.8926,-32.75977 36.7457,4.08493 72.7228,-6.25386 109.3223,-6.62109 z m 8251.6269,15.02148 c -27.7701,-1.63824 -55.679,1.85635 -83.4668,2.96094 -25.1384,-7.8658 -39.3985,21.35119 -25.0839,40.68555 -4.3596,24.83824 -2.5732,52.31733 12.3066,73.5332 -21.9105,12.62722 14.2321,27.60267 11.6582,43.71094 -0.2468,22.13195 12.4204,45.56615 -0.6211,63.73437 3.1108,20.9074 3.4159,42.65635 -11.6992,59.70899 -12.5765,20.57126 10.442,42.64781 -3.3184,64.02148 -13.4925,24.02231 8.6564,45.74558 9.6895,70.21875 4.4716,20.49795 7.8636,53.73316 -19.0918,59.45117 -35.0745,-1.4709 -72.2952,12.28386 -105.6758,-3.86718 -26.3808,-22.99378 -48.4716,-50.96296 -64.3652,-82.16016 -29.1953,-54.15577 -27.7414,-117.33444 -44.6992,-175.2168 -17.668,-43.55889 -19.4996,-91.08892 -20.709,-137.47851 -4.5247,-21.41666 4.8061,-44.58886 -5.7676,-64.7793 -14.1264,-18.19204 -42.6523,-9.87548 -62.7617,-8.92773 -24.6791,5.40294 -51.1355,6.22586 -74.2422,16.82031 -15.6021,12.04982 -6.3659,32.86675 -4.3125,48.80859 1.6455,31.69279 -1.7766,63.62607 -0.9297,95.44141 8.795,77.6236 -5.2878,157.39299 -37.3457,228.48437 -10.2553,25.58514 -24.7745,48.9797 -39.9922,71.85743 0,22.11609 -29.5381,40.34936 -44.4746,17.99609 -28.0361,-25.32774 -50.4668,-57.42504 -62.6797,-93.46289 -23.413,-63.21077 -12.5678,-131.25301 -9.416,-196.7168 -2.37,-33.59667 -4.9978,-67.98563 3.2441,-101.13086 9.7969,-20.5359 12.9924,-53.11106 -14.7343,-60.97851 -31.0621,-2.20746 -62.6325,-6.04472 -93.7442,-1.79688 -27.2608,-0.11758 -39.2725,28.62684 -42.4121,51.64453 -10.7104,37.03166 -7.4023,75.75011 -5.9766,113.70899 -2.3056,55.34068 -7.5884,111.2785 1.795,166.3125 2.5815,29.21847 22.7893,56.73164 14.2187,86.60156 -6.5647,15.17298 -18.6399,49.3995 11.4043,42.52148 21.9572,4.24205 6.7898,40.91259 33.8496,40.95899 28.9613,-1.08123 13.3656,39.56841 40.9434,39.66601 26.9371,-0.28399 22.2312,39.8012 51.123,37.4629 47.8275,3.0509 96.3954,11.6807 144.045,2.4316 19.2577,1.0563 35.1482,-11.4949 52.1367,-18.43551 17.1601,-5.1989 39.2286,-3.59169 45.2226,-25.57227 2.3863,-27.35991 30.6711,-33.74567 44.6035,-52.76367 3.1732,-25.14274 19.4252,-0.32217 12.125,11.74414 -5.2501,21.53614 19.1383,32.81405 37.1055,32.22656 32.5681,-5.79942 13.3463,30.83798 22.1016,46.16015 21.548,-0.4512 43.1469,10.0845 59.3867,25.5469 58.1427,4.5017 115.4077,18.054 173.8887,18.2695 6.1228,1.4396 12.5093,0.8639 18.5918,-0.4687 20.4084,-10.3913 45.8797,1.7284 63.123,-15.4825 16.1246,-17.7098 22.2992,-42.31845 43.9922,-55.54292 16.568,-19.66554 25.7376,-44.41234 41.7031,-64.54688 14.4154,-12.76745 11.3555,-33.69239 8.209,-50.625 -2.2393,-26.40583 -6.0827,-53.17542 -2.9668,-79.67383 15.8571,-62.72083 14.9023,-129.31748 -1.6172,-191.80664 -16.484,-45.57577 -21.994,-94.02621 -34.834,-140.59179 -4.2995,-21.7836 -14.6973,-46.78347 -39.5293,-50.66407 z m 280.6914,14.43946 c 23.6302,19.4796 57.0385,15.41128 82.8575,30.0625 17.7223,16.15765 31.5567,39.76569 58.2656,41.72461 25.669,0.79894 37.6515,23.81305 43.2324,45.5332 3.6361,25.05802 4.8366,50.40452 7.6504,75.60156 4.0363,9.50755 -3.8789,43.07401 12.2734,32.41797 -0.4371,11.08869 17.4173,35.47548 25.3672,13.63477 0.2433,-33.34886 -6.8234,-66.40477 -4.8808,-99.78711 -0.067,-16.63746 5.535,-54.31179 29.5918,-41.94336 14.1776,17.11128 35.1526,31.25953 58.2556,29.00586 21.654,-3.2135 38.859,13.13641 59.479,17.07422 24.21,10.07183 50.508,9.97724 75.967,13.96679 22.517,8.71313 45.257,18.43547 69.632,20.82617 25.676,-1.70014 41.614,23.00363 65.168,28.20899 25.408,-1.9969 9.071,23.17173 -4.361,28.1875 0.835,8.2916 0.176,25.06664 -13.527,28.90625 -16.914,8.70819 -37.3,8.99597 -51.178,-5.78125 -16.283,-17.32092 -40.56,-12.84047 -61.912,-12.63086 -21.134,2.03805 -48.602,-1.17427 -62.379,18.68555 -4.394,15.29765 -19.936,21.68228 -33.522,26.61523 -18.72,6.63093 -27.858,24.9909 -39.064,39.74219 -13.223,-5.24267 -21.278,16.87778 -26.533,31.18359 -16.822,18.53438 -44.2129,6.70629 -65.0471,15.21875 -2.303,1.4621 -5.0533,2.37 -7.8301,1.92969 -17.5814,-15.73681 -40.0591,-22.95195 -63.209,-13.44531 -31.6305,7.36328 -28.3952,-34.28791 -43.1797,-50.55078 -18.8784,-1.64673 -38.9473,-16.19786 -39.1797,-38.14454 -14.7607,-18.04246 -21.8811,-40.89676 -26.1308,-63.47265 -3.1096,-33.28965 -18.7241,-63.18322 -33.0762,-92.75586 -5.6246,-25.96572 -17.9668,-49.87776 -26.1875,-75.08008 -2.1272,-14.46911 -12.8056,-51.55471 13.457,-44.93359 z m -4609.7539,9.44726 c -0.3703,1.5272 -1.2766,3.17271 -1.6093,0.35547 1.814,-3.29156 1.9797,-1.88267 1.6093,-0.35547 z m 1765.2637,27.64453 c 0.6388,0.52167 0.9721,1.95579 0.461,4.86328 -7.0524,0.22553 -2.3773,-6.42827 -0.461,-4.86328 z m 3053.6875,100.85743 c -1.5725,26.29685 5.4394,52.31899 3.3535,78.61718 -15.4807,-6.08052 -4.6803,-32.38689 -7.7422,-45.87304 -0.7123,-8.2037 -10.1885,-40.2941 4.3887,-32.74414 z m 387.7888,274.71875 c 13.756,0.19087 24.346,14.18764 13.916,29.70703 -8.938,27.05499 -50.458,9.17579 -51.992,41.49414 -1.1,24.28858 -25.12,18.48913 -40.193,25.57422 -20.785,11.01264 -8.404,50.26935 -38.399,47.71289 -28.465,-4.43322 -20.04,35.52852 -45.482,38.69142 -28.122,-2.9556 -26.44,27.3923 -36.481,45.0449 -12.519,15.3616 -38.787,-4.2852 -48.275,16.5586 1.056,21.8828 -13.141,45.2487 -38.375,40.1016 -19.407,-8.0524 -50.883,3.8724 -42.596,29.041 -0.649,26.4841 -34.3617,13.8015 -50.0329,22.6816 -7.9133,6.9685 -19.0405,2.9544 -21.6855,-6.8555 -8.859,-39.8919 -15.3507,-80.4822 -24.4219,-120.416 -8.5185,-34.0079 -17.6358,-67.83812 -28.1895,-101.27536 -11.5604,-25.25291 21.3941,-7.57751 33.1036,-5.85937 34.9725,-4.81877 71.4268,1.13352 105.8532,-8.98242 19.322,-9.25106 41.204,-3.76238 61.416,-8.61719 19.745,-8.55202 33.718,-29.2697 57.241,-31.82617 21.273,-6.75363 32.392,-38.93497 59.326,-33.91407 19.447,6.15399 40.278,3.61968 59.361,-2.60351 20.99,-2.03601 43.251,1.45074 61.758,-11.39063 4.628,-3.4593 9.563,-4.93081 14.148,-4.86718 z m -4350.9333,193.9531 c 9.2216,-0.8714 17.9567,0.6398 24.4043,8.8731 6.2359,18.1193 2.5539,38.2143 1.4433,57.0547 -2.1899,19.6765 -3.6117,39.5955 5.4942,58.0214 6.5046,21.8859 -9.2204,43.391 -2.0625,65.8321 12.3605,61.7938 0.038,124.6085 3.1152,186.875 3.3793,21.6797 8.2099,43.5387 6.461,65.7109 -7.7677,56.2398 1.5709,112.8574 -1.5743,169.2598 -13.7838,3.9605 -28.1829,0.5477 -41.7461,-2.627 -41.737,-6.8749 -80.7167,-24.9436 -122.6093,-30.957 -38.5128,-1.2599 -77.1603,-2.7028 -115.7442,-3.0332 -33.3583,-3.0949 -64.4425,14.6816 -97.6836,11.9902 -20.7672,-9.4578 -49.0796,4.8529 -65.0293,-14.5781 -8.3809,-24.3949 -6.0389,-51.1205 0.877,-75.5625 2.0986,-24.3327 -0.6436,-49.182 2.5762,-73.584 -3.3105,-20.8968 -9.2928,-46.8456 9.664,-64.0234 4.705,-25.0023 -0.4498,-50.4133 -0.045,-75.5313 1.6762,-20.6043 24.3342,-28.2374 31.6172,-45.5019 7.3885,-17.7756 -2.9665,-45.9122 21.1738,-53.3809 27.6689,-3.6441 44.2436,-26.6802 58.3672,-48.3379 13.6364,-23.1448 41.3215,-28.0961 65.9707,-27.9629 25.9021,0.6453 40.5766,-23.728 52.6719,-42.9218 19.8253,-14.3339 45.5076,-6.8539 67.7734,-12.6856 15.4591,-0.3283 25.4673,-13.3464 32.3711,-25.6621 6.7069,-13.6915 19.5919,-23.2345 35.1914,-21.8457 8.3929,-1.2962 18.1007,-4.5505 27.3223,-5.4219 z m 2618.8125,49.8047 c -28.1511,-0.5815 -55.8774,6.3266 -83.9102,8.8379 -17.7379,4.7526 -47.7281,0.508 -53.25,23.0918 2.5445,23.2467 5.9529,46.6604 5.5664,70.1992 -8.0853,19.5412 9.395,28.0378 25.666,31.4102 29.9482,3.5272 60.5026,-1.2385 90.5547,-2.7637 21.7462,5.1438 44.4891,-14.4828 40.3457,-37.1074 -4.9921,-16.0987 -12,-31.8955 -13.2324,-49.0254 -5.078,-14.3686 6.5622,-38.6686 -11.7402,-44.6426 z m 791.3945,74.9375 c -12.0296,-0.606 -22.7143,2.3892 -27.7344,16.3887 2.5666,24.1513 -2.5631,48.3339 -0.5546,72.5019 35.8148,8.9519 71.6923,18.8683 108.666,21.5352 11.7431,-0.7389 25.2876,4.2403 35.7754,-3.1094 16.4254,-15.8996 3.0931,-40.8456 11.414,-59.7441 9.8373,-18.9162 -8.1837,-39.9712 -27.3359,-41.8418 -21.3641,-1.8181 -42.871,-2.6192 -64.4238,-0.5059 -10.4021,-0.4108 -23.7771,-4.6185 -35.8067,-5.2246 z m -5493.6601,13.1309 c 0.865,2.289 1.5633,5.5426 -0.502,2.8945 -1.3949,-6.5079 -0.3631,-5.1835 0.502,-2.8945 z m 4320.6367,52.9707 c 1.4584,0.092 3.0556,2.0756 0.4179,5.6718 -3.1961,-3.9652 -1.8764,-5.7641 -0.4179,-5.6718 z m -0.3399,15.6718 c 2.0671,-6.4603 -0.8882,10.9134 0,0 z M 0.2376522,1255.476 c -1.9010417,-832.34247 -0.95052083,-416.17124 0,0 z M 9539.6322,1302.6303 c -12.9349,7.1425 -14.0682,32.6097 -18.5684,46.58 -2.1321,20.925 -25.1405,46.8803 -3.1543,64.2559 40.2295,14.4508 82.271,24.7574 124.4981,32.1406 l 2.4648,-1.6797 2.2266,-1.9394 c 11.9247,-15.0591 13.9212,-35.9361 17.373,-54.3418 -7.6006,-19.9187 27.7716,-39.8856 5.8203,-56.5195 -17.6381,-6.9596 -36.4095,-11.5185 -54.8886,-16.045 -19.3914,-5.1323 -39.8756,-3.7013 -58.3399,-12.3808 -7.4961,-2.7959 -13.12,-2.4512 -17.4316,-0.07 z m -730.668,20.5937 c -30.9183,-0.2093 -61.6631,4.9011 -92.1621,9.6973 -16.2375,0.04 -40.7393,3.0763 -37.209,25.5547 -3.9847,24.0497 10.9033,52.253 38.8809,51.5429 1.3904,0.7673 2.6759,1.7338 4.3359,1.7578 28.3781,-5.169 57.9988,3.2473 86.0469,-4.9882 19.8542,-3.2262 27.8549,-24.4815 26.1309,-42.4336 -0.5153,-17.7636 -2.5426,-41.7325 -26.0235,-41.1309 z m -292.9726,39.4102 c -26.9023,4 -53.0017,12.7514 -79.7891,17.7929 -21.4001,-2.0243 -39.8299,22.9841 -28.4199,42.2715 9.9595,16.9989 16.1585,46.4393 41.7871,43.9278 30.2379,1.4249 59.6138,-6.9782 89.3496,-10.8438 26.5446,0.2458 37.3624,-30.5507 24.4101,-50.9512 -9.0984,-19.6771 -21.1485,-45.4629 -47.3378,-42.1972 z m 711.6425,19.8496 c -7.283,0.025 -14.5405,1.0314 -21.7656,3.7304 -23.9859,3.2466 -17.8098,28.05 -7.7676,42.6036 11.5456,23.7185 -18.7388,50.4569 0.8731,71.4394 25.5516,13.5554 55.725,14.2457 83.9297,18.2188 5.4539,1.4253 11.0696,2.1688 16.6933,2.457 23.1815,9.6728 51.2625,-15.9475 39.1934,-39.5879 -1.5345,-20.3413 1.262,-40.7899 1.5527,-61.1777 4.9208,-27.3795 -26.5394,-31.337 -46.6855,-30.5918 -22.0991,1.5918 -44.1745,-7.1669 -66.0235,-7.0918 z m -5822.8828,43.8711 c -0.072,1.5405 -0.7599,3.1459 -1.8476,0.1933 1.3763,-3.2094 1.9198,-1.7338 1.8476,-0.1933 z m 1998.1524,36.1133 c 3.4982,-3.2902 0.7097,5.1336 0,0 z m 2511.5215,164.7109 c -0.4946,1.9541 -1.4021,4.1417 -1.2403,0.7012 1.8164,-4.3758 1.7348,-2.6553 1.2403,-0.7012 z" />
  </g>
</svg>
