<svg xmlns="http://www.w3.org/2000/svg" viewBox="0 0 108.386 21.426">
  <g fill="#fff" stroke="none" stroke-width="0">
    <path d="M9.215 8.953c-1.045-.836-2.36-1.224-3.494-1.941-1.314-.866-2.479-2.36-2.449-4.032.03-.298.09-.597.18-.896.09.09.18.18.298.329.478.717.806 1.94 1.792 2.15.717.15 1.583-.03 2.27-.3.24-.118 1.194-.626.448-.805-.598-.12-1.016-1.433-1.344-1.911C6.29.68 5.512.263 4.436.263c-1.433 0-3.284.448-4.03 1.79-.629 1.106-.479 2.51.118 3.585.716 1.344 1.851 2.21 3.195 2.897 1.225.597 2.45 1.165 3.285 2.27 1.075 1.374 1.643 3.285 1.523 5.017-.03.866-.298 1.702-.716 2.479a5.04 5.04 0 0 1-.628.926c-.209.209-.507.418-.776.358-.478-.09-.956-.597-1.224-.986-.568-.687-.867-1.523-1.076-2.39-.418-1.88.03-3.881 1.225-5.374.358-.448-1.165-.36-1.254-.33-.628.06-1.553.24-1.972.748-1.97 2.478-1.94 6.45.39 8.72 2.388 2.33 6.838.657 8.391-1.851 1.762-2.838.925-7.108-1.673-9.17z"/>
    <path d="M20.384 4.235c-1.075-.927-2.986-2.001-2.597-3.733.12-.538-1.015-.36-1.284-.33a4.68 4.68 0 0 0-1.254.359c-.12.03-.329.12-.478.24-.747.149-1.434.447-1.463.865-.09 3.226-.06 6.45.12 9.706-.27.09-.538.21-.718.389-.478.507.418.537.747.537.03 0 .03-.03.03-.03.18 2.897.478 5.734.866 8.6.09.628 3.375 0 3.285-.775a106.948 106.948 0 0 1-.836-8.243 12.34 12.34 0 0 0 2.27-.657c1.343-.567 2.747-1.493 3.075-3.016.36-1.613-.537-2.927-1.762-3.912zM18.652 9.43a3.786 3.786 0 0 1-.597.776c-.269.24-.299.21-.538.359-.03.03-.09.06-.119.06v.03c-.06 0-.269.089-.299.089-.06.03-.12.03-.12.06-.059 0-.119.03-.178.03h-.09c-.12-2.061-.179-4.122-.179-6.212 1.045.836 2.12 1.642 2.36 2.897a2.82 2.82 0 0 1-.24 1.91z"/>
    <path d="M33.047.113c-.657.03-1.672.18-2.21.657-.866.807-1.374 2-1.852 3.046-.388.896-.687 1.822-.985 2.748-1.434-1.792-2.539-3.942-2.957-6.122-.12-.478-1.463-.21-1.762-.15-.388.09-.776.21-1.135.389-.12.09-.448.239-.388.448.33 1.672 1.045 3.255 1.971 4.688.956 1.523 2.12 2.927 3.494 4.062-.657 3.614-1.045 7.257-1.224 10.93-.03.478 3.255.21 3.285-.687.18-3.822.597-7.615 1.314-11.378a26.823 26.823 0 0 1 1.493-5.077c.418-.955.866-2.27 1.673-3.016.537-.478-.418-.538-.717-.538Z"/>
    <path d="M41.32.233c-.568-.33-1.524-.06-2.09.12-.12.03-.867.298-1.076.567-.627.09-1.404.239-1.882.746-2.598 2.837-3.285 6.959-2.837 10.692.3 2.687 1.404 5.495 3.405 7.406 1.642 1.553 3.344 1.762 5.495.717 3.583-1.762 5.017-5.913 4.927-9.617-.09-4.24-2.27-8.421-5.943-10.631zm.417 18.695c-.388.448-.657.806-1.254.448-.388-.24-.687-.597-.985-.926-1.673-1.762-2.48-4.24-2.778-6.63-.448-3.494.15-7.257 2.36-10.034 2.36 1.702 3.971 4.3 4.6 7.137.685 3.226.357 7.437-1.943 10.005z"/>
    <path d="M57.237 8.953c-1.045-.836-2.36-1.224-3.494-1.941-1.314-.866-2.479-2.36-2.45-4.032.03-.298.09-.597.18-.896.09.09.18.18.3.329.477.717.805 1.94 1.791 2.15.716.15 1.582-.03 2.27-.3.238-.118 1.194-.626.447-.805-.597-.12-1.015-1.433-1.344-1.911C54.31.68 53.534.263 52.46.263c-1.434 0-3.285.448-4.032 1.79-.627 1.106-.478 2.51.12 3.585.716 1.344 1.851 2.21 3.195 2.897 1.224.597 2.45 1.165 3.285 2.27 1.075 1.374 1.643 3.285 1.523 5.017-.03.866-.299 1.702-.717 2.479a5.04 5.04 0 0 1-.627.926c-.209.209-.508.418-.776.358-.478-.09-.956-.597-1.225-.986-.567-.687-.866-1.523-1.075-2.39-.418-1.88.03-3.881 1.225-5.374.358-.448-1.165-.36-1.255-.33-.627.06-1.553.24-1.97.748-1.972 2.478-1.942 6.45.387 8.72 2.39 2.33 6.84.657 8.392-1.851 1.762-2.838.926-7.108-1.672-9.17z"/>
    <path d="M72.557 15.165c-.06-.567-3.344-.03-3.285.806.12 1.075-.09 2.15-.716 3.076-.896 1.284-2.39-.866-2.808-1.582-.657-1.076-1.105-2.27-1.403-3.495-.628-2.508-.687-5.226 0-7.764.298-1.075.716-2.12 1.344-3.047a7.274 7.274 0 0 1 1.045-1.284c.09 1.046.358 2.06.627 3.076.3 1.165.567 2.45-.239 3.494-.358.448 1.165.329 1.284.3.627-.12 1.523-.3 1.912-.837.836-1.045.657-2.45.328-3.673-.328-1.314-.717-2.628-.687-4.002 0-.18-.508-.21-.567-.21-.18-.03-.359-.03-.508 0-2.628.21-4.928 1.404-6.39 3.644-1.464 2.18-1.942 4.958-1.882 7.526.06 2.658.686 5.435 2.27 7.615.925 1.255 2.06 2.12 3.643 2.21 3.285.15 6.331-2.45 6.032-5.853z"/>
    <path d="M84.354 13.672c.567-.717.806-2.748.448-2.748-.329 0-.627.03-.956.03C83.13 7.43 82.114 3.936 80.92.53c-.06-.15-.239-.24-.477-.268-.807-.18-2.629.12-2.838.686-1.194 3.495-2.24 7.108-3.046 10.752-.15 0-.269.03-.388.06-.538.06-.747.925-.896 1.343-.03.15-.358 1.673.03 1.643.21-.03.418-.06.657-.09-.358 2-.657 4.002-.836 6.003-.06.418 3.195.21 3.285-.717.15-1.881.418-3.763.776-5.644 1.255-.12 2.54-.24 3.823-.3.358 2.3.627 4.6.717 6.9.03.567 3.345.15 3.285-.687-.09-2.21-.329-4.39-.657-6.54zm-6.57-2.33a84.892 84.892 0 0 1 1.343-5.434 66.178 66.178 0 0 1 1.315 5.196c-.896.06-1.762.15-2.658.24z"/>
    <path d="M93.791 4.235c-1.075-.926-2.987-2.001-2.598-3.733.12-.538-1.016-.36-1.284-.33-.419.06-.867.18-1.255.359-.12.03-.328.12-.478.24-.746.149-1.433.447-1.463.865-.09 3.226-.06 6.45.12 9.706-.27.09-.538.21-.717.389-.478.507.418.537.746.537.03 0 .03-.03.03-.03.18 2.897.478 5.734.866 8.6.09.628 3.375 0 3.285-.775a106.943 106.943 0 0 1-.836-8.243c.777-.15 1.523-.358 2.27-.657 1.344-.567 2.747-1.493 3.076-3.016.358-1.613-.538-2.927-1.762-3.912zM92.06 9.43c-.18.299-.359.538-.598.776-.268.24-.298.21-.537.359-.03.03-.09.06-.12.06v.03c-.06 0-.268.089-.298.089-.06.03-.12.03-.12.06-.06 0-.12.03-.179.03h-.09a107.494 107.494 0 0 1-.179-6.212c1.046.836 2.12 1.642 2.36 2.897.15.657.06 1.314-.24 1.91z"/>
    <path d="M108.186 17.644c-1.553-.21-3.136-.21-4.69-.06-.776.09-1.582.18-2.388.358a60.809 60.809 0 0 1-.717-6.63 91.967 91.967 0 0 1 4.061-.18c.867-.03 1.285-3.015.867-2.985-1.673.06-3.345.12-5.018.269-.03-1.583.03-3.136.12-4.69 2 .06 4.061-.148 5.943-.716.21-.06.388-.478.478-.627.15-.33.298-.747.358-1.135.03-.21.24-1.344-.239-1.194-2.628.806-5.555.895-8.272.448-.24-.03-.448.238-.598.567-.418.15-.716.358-.746.627a68.746 68.746 0 0 0-.359 7.048c-.388.21-.597.956-.716 1.314-.03.15-.359 1.673.03 1.643.238-.03.507-.06.776-.09.12 2.897.448 5.794 1.045 8.57.03.12.12.18.24.24-.03.388-.12 1.135.298.986 1.314-.478 2.717-.717 4.121-.837a20.95 20.95 0 0 1 4.54.06c.477.06.776-1.045.866-1.344.06-.21.418-1.583 0-1.642z"/>
  </g>
</svg>
